<?xml version="1.0" encoding="UTF-8" standalone="no"?>
<!-- Created with Inkscape (http://www.inkscape.org/) -->

<svg
   width="64mm"
   height="89mm"
   viewBox="0 0 64 89"
   version="1.1"
   id="svg1"
   xmlns="http://www.w3.org/2000/svg"
   xmlns:svg="http://www.w3.org/2000/svg">
  <defs
     id="defs1" />
  <g
     id="layer1">
    <path
       id="rect357"
       style="display:inline;vector-effect:non-scaling-stroke;fill:#ffffff;stroke-width:0.264583;stroke-linecap:square;-inkscape-stroke:hairline"
       d="m 3.5,0 h 56.999996 c 1.939,0 3.5,1.561 3.5,3.5 v 82 c 0,1.939 -1.561,3.5 -3.5,3.5 H 3.5 C 1.561,89 0,87.439 0,85.5 V 3.5 C 0,1.561 1.561,0 3.5,0 Z" />
    <path
       style="font-size:3.175px;text-align:center;text-anchor:middle;fill:#008000;stroke-width:48.0408;stroke-linecap:square"
       d="m 32.035047,49.251314 q 5.0199,0 7.38911,5.32486 0.30489,1.21987 0.3754,2.53341 0,2.74453 -2.8149,6.49774 l -1.40748,1.40748 h 0.0711 q 1.73586,-0.65683 3.70628,-0.65683 h 0.44576 q 5.58288,0 7.83482,4.73843 0.53957,1.54818 0.53957,2.95562 0,4.80881 -4.90262,7.24839 -0.93828,0.2814 -2.60378,0.42231 -5.67671,0 -8.04593,-6.42737 h -0.0711 v 0.21112 q 0,8.04592 1.92352,10.60279 v 0.14074 h -4.87917 l -0.14074,-0.14074 q 1.99388,-3.00256 1.99388,-10.81392 v -0.0712 h -0.0711 q -2.34577,6.49774 -8.09286,6.49774 -4.48037,0 -6.87305,-4.71496 -0.58646,-1.59511 -0.58646,-2.95566 0,-5.46561 5.77054,-7.41258 1.5482,-0.2814 2.74454,-0.2814 h 0.21109 q 2.01734,0 3.84703,0.65684 h 0.0711 v -0.0712 q -1.97043,-1.66551 -2.65071,-3.28407 -1.40748,-2.58034 -1.40748,-4.4804 v -0.32833 q 0,-4.71497 5.04337,-7.15455 1.66547,-0.44561 2.58032,-0.44561 z"
       id="path366" />
    <path
       style="font-weight:bold;font-size:45.8611px;font-family:'Adwaita Sans';-inkscape-font-specification:'Adwaita Sans Bold';text-align:center;text-anchor:middle;fill:#008000;stroke:#008000;stroke-width:0.273824;stroke-linecap:square"
       d="M 23.625002,5.2984205 V 38.664162 H 16.99664 V 11.635672 H 16.95185 L 9.1142638,16.606944 V 10.560803 L 17.377323,5.2984205 Z m 17.39945,33.9031755 q -4.187513,0 -7.232976,-2.082559 -3.023071,-2.104953 -4.657768,-5.956569 -1.612304,-3.851616 -1.612304,-9.158784 0,-5.329561 1.612304,-9.181177 1.634697,-3.8516156 4.657768,-5.9565684 3.02307,-2.1049528 7.232976,-2.1049528 4.187512,0 7.210583,2.1049528 3.045464,2.0825597 4.657768,5.9565684 1.634697,3.851616 1.634697,9.181177 0,5.307168 -1.634697,9.158784 -1.612304,3.851616 -4.657768,5.956569 -3.023071,2.082559 -7.210583,2.082559 z m 0,-5.508706 q 2.172132,0 3.73965,-1.410766 1.567518,-1.410766 2.418457,-4.030761 0.850938,-2.619994 0.850938,-6.247679 0,-3.650078 -0.850938,-6.270072 -0.850939,-2.619994 -2.418457,-4.030761 -1.567518,-1.433159 -3.73965,-1.433159 -2.172132,0 -3.762043,1.433159 -1.567518,1.410767 -2.418457,4.030761 -0.828545,2.619994 -0.828545,6.270072 0,3.627685 0.828545,6.247679 0.850939,2.619995 2.418457,4.030761 1.589911,1.410766 3.762043,1.410766 z"
       id="text366"
       aria-label="10" />
  </g>
</svg>
