<?xml version="1.0" encoding="UTF-8" standalone="no"?>
<!-- Created with Inkscape (http://www.inkscape.org/) -->

<svg
   width="64mm"
   height="89mm"
   viewBox="0 0 64 89"
   version="1.1"
   id="svg1"
   xmlns="http://www.w3.org/2000/svg"
   xmlns:svg="http://www.w3.org/2000/svg">
  <defs
     id="defs1" />
  <g
     id="layer1">
    <path
       id="rect360"
       style="display:inline;vector-effect:non-scaling-stroke;fill:#ffffff;stroke-width:0.264583;stroke-linecap:square;-inkscape-stroke:hairline"
       d="m 3.5,0 h 56.999996 c 1.939,0 3.5,1.561 3.5,3.5 v 82 c 0,1.939 -1.561,3.5 -3.5,3.5 H 3.5 C 1.561,89 0,87.439 0,85.5 V 3.5 C 0,1.561 1.561,0 3.5,0 Z" />
    <path
       d="M 23.625002,5.2984129 V 38.664154 H 16.99664 V 11.635664 H 16.95185 L 9.1142638,16.606936 V 10.560795 L 17.377323,5.2984129 Z m 17.39945,33.9031761 q -4.187513,0 -7.232976,-2.08256 -3.023071,-2.104953 -4.657768,-5.956568 -1.612304,-3.851616 -1.612304,-9.158784 0,-5.329562 1.612304,-9.181178 1.634697,-3.8516153 4.657768,-5.9565681 3.02307,-2.1049528 7.232976,-2.1049528 4.187512,0 7.210583,2.1049528 3.045464,2.0825597 4.657768,5.9565681 1.634697,3.851616 1.634697,9.181178 0,5.307168 -1.634697,9.158784 -1.612304,3.851615 -4.657768,5.956568 -3.023071,2.08256 -7.210583,2.08256 z m 0,-5.508706 q 2.172132,0 3.73965,-1.410767 1.567518,-1.410766 2.418457,-4.03076 0.850938,-2.619995 0.850938,-6.247679 0,-3.650078 -0.850938,-6.270073 -0.850939,-2.619994 -2.418457,-4.03076 -1.567518,-1.43316 -3.73965,-1.43316 -2.172132,0 -3.762043,1.43316 -1.567518,1.410766 -2.418457,4.03076 -0.828545,2.619995 -0.828545,6.270073 0,3.627684 0.828545,6.247679 0.850939,2.619994 2.418457,4.03076 1.589911,1.410767 3.762043,1.410767 z"
       id="text368"
       style="font-weight:bold;font-size:45.8611px;font-family:'Adwaita Sans';-inkscape-font-specification:'Adwaita Sans Bold';text-align:center;text-anchor:middle;fill:#0000ff;stroke:#0000ff;stroke-width:0.264583;stroke-linecap:square"
       aria-label="10" />
    <path
       style="font-size:3.175px;text-align:center;text-anchor:middle;display:inline;fill:#0000ff;stroke-width:48.0427;stroke-linecap:square"
       d="m 32.023449,49.249999 11.79962,15.31835 q 1.61863,1.99398 1.61863,2.29894 l -13.41825,17.38271 q -0.28144,-0.1876 -13.46513,-17.38271 0,-0.3283 2.60386,-3.5657 z"
       id="path368" />
  </g>
</svg>
