<?xml version="1.0" encoding="UTF-8" standalone="no"?>
<!-- Created with Inkscape (http://www.inkscape.org/) -->

<svg
   width="64mm"
   height="89mm"
   viewBox="0 0 64 89"
   version="1.1"
   id="svg1"
   xmlns="http://www.w3.org/2000/svg"
   xmlns:svg="http://www.w3.org/2000/svg">
  <defs
     id="defs1" />
  <g
     id="layer1">
    <path
       id="rect359"
       style="display:inline;vector-effect:non-scaling-stroke;fill:#ffffff;stroke-width:0.264583;stroke-linecap:square;-inkscape-stroke:hairline"
       d="m 3.5,0 h 56.999996 c 1.939,0 3.5,1.561 3.5,3.5 v 82 c 0,1.939 -1.561,3.5 -3.5,3.5 H 3.5 C 1.561,89 0,87.439 0,85.5 V 3.5 C 0,1.561 1.561,0 3.5,0 Z" />
    <path
       d="M 23.625002,5.2984053 V 38.664146 H 16.99664 V 11.635657 H 16.95185 L 9.1142638,16.606928 V 10.560787 L 17.377323,5.2984053 Z m 17.39945,33.9031757 q -4.187513,0 -7.232976,-2.08256 -3.023071,-2.104952 -4.657768,-5.956568 -1.612304,-3.851616 -1.612304,-9.158784 0,-5.329561 1.612304,-9.181177 1.634697,-3.8516159 4.657768,-5.9565687 3.02307,-2.1049528 7.232976,-2.1049528 4.187512,0 7.210583,2.1049528 3.045464,2.0825597 4.657768,5.9565687 1.634697,3.851616 1.634697,9.181177 0,5.307168 -1.634697,9.158784 -1.612304,3.851616 -4.657768,5.956568 -3.023071,2.08256 -7.210583,2.08256 z m 0,-5.508706 q 2.172132,0 3.73965,-1.410766 1.567518,-1.410767 2.418457,-4.030761 0.850938,-2.619994 0.850938,-6.247679 0,-3.650078 -0.850938,-6.270072 -0.850939,-2.619995 -2.418457,-4.030761 -1.567518,-1.433159 -3.73965,-1.433159 -2.172132,0 -3.762043,1.433159 -1.567518,1.410766 -2.418457,4.030761 -0.828545,2.619994 -0.828545,6.270072 0,3.627685 0.828545,6.247679 0.850939,2.619994 2.418457,4.030761 1.589911,1.410766 3.762043,1.410766 z"
       id="text367"
       style="font-weight:bold;font-size:45.8611px;font-family:'Adwaita Sans';-inkscape-font-specification:'Adwaita Sans Bold';text-align:center;text-anchor:middle;fill:#ff0000;stroke:#ff0000;stroke-width:0.264583;stroke-linecap:square"
       aria-label="10" />
    <path
       style="font-size:3.175px;text-align:center;text-anchor:middle;display:inline;fill:#ff0000;stroke-width:48.0427;stroke-linecap:square"
       d="m 23.402209,49.25 q 4.76205,0 7.48322,5.51274 0.98522,2.18162 1.03212,3.3311 h 0.0711 q 0.82102,-3.80027 2.97923,-6.31033 2.53352,-2.53351 5.70041,-2.53351 4.90281,0 7.85858,5.25469 0.75068,1.94705 0.75068,3.65949 0,5.86461 -4.87936,11.18971 L 31.988699,84.25 h -0.14081 L 18.663499,68.08714 q -3.94103,-4.809 -3.94103,-9.92296 0,-4.9497 4.66822,-7.85855 1.9705,-1.0556 4.0114,-1.0556 z"
       id="path367" />
  </g>
</svg>
