<?xml version="1.0" encoding="UTF-8" standalone="no"?>
<!-- Created with Inkscape (http://www.inkscape.org/) -->

<svg
   width="64mm"
   height="89mm"
   viewBox="0 0 64 89"
   version="1.1"
   id="svg1"
   xmlns="http://www.w3.org/2000/svg"
   xmlns:svg="http://www.w3.org/2000/svg">
  <defs
     id="defs1" />
  <g
     id="layer1">
    <path
       id="rect158"
       style="display:inline;vector-effect:non-scaling-stroke;fill:#ffffff;stroke-width:0.264583;stroke-linecap:square;-inkscape-stroke:hairline"
       d="m 3.5,0 h 56.999996 c 1.939,0 3.5,1.561 3.5,3.5 v 82 c 0,1.939 -1.561,3.5 -3.5,3.5 H 3.5 C 1.561,89 0,87.439 0,85.5 V 3.5 C 0,1.561 1.561,0 3.5,0 Z" />
    <path
       style="font-size:3.175px;text-align:center;text-anchor:middle;stroke-width:48.0408;stroke-linecap:square;fill:#008000"
       d="m 32.035042,49.25131 q 5.019902,0 7.389112,5.324865 0.30489,1.219863 0.3754,2.533404 0,2.74453 -2.8149,6.497741 l -1.407483,1.407488 h 0.07112 q 1.735863,-0.656835 3.706283,-0.656835 h 0.44576 q 5.58288,0 7.83482,4.73843 0.53957,1.548184 0.53957,2.955621 0,4.808806 -4.90262,7.248394 -0.93828,0.2814 -2.60377,0.422301 -5.676724,0 -8.045942,-6.427367 h -0.07112 v 0.21112 q 0,8.045922 1.923518,10.602796 v 0.140735 h -4.879169 l -0.140735,-0.140735 q 1.993875,-3.002561 1.993875,-10.813921 v -0.07117 h -0.07112 q -2.345764,6.497737 -8.09286,6.497737 -4.480367,0 -6.873044,-4.714958 -0.586465,-1.595108 -0.586465,-2.955662 0,-5.465614 5.770541,-7.412581 1.548205,-0.2814 2.744543,-0.2814 h 0.211085 q 2.017344,0 3.847031,0.656843 h 0.07112 v -0.07119 q -1.970425,-1.665509 -2.650706,-3.284072 -1.407484,-2.580338 -1.407484,-4.480398 v -0.328335 q 0,-4.714963 5.043368,-7.154547 1.665471,-0.445611 2.580321,-0.445611 z"
       id="path168" />
    <path
       style="font-weight:bold;font-size:45.8611px;font-family:'Adwaita Sans';-inkscape-font-specification:'Adwaita Sans Bold';text-align:center;text-anchor:middle;stroke:#008000;stroke-width:0.273824;stroke-linecap:square;fill:#008000"
       d="m 20.154043,38.664158 v -5.060844 l 12.22664,-10.457585 q 1.477946,-1.2988 2.642388,-2.440849 1.164442,-1.142049 1.813842,-2.396064 0.671794,-1.254014 0.671794,-2.799139 0,-1.589911 -0.671794,-2.754353 -0.6494,-1.186835 -1.858628,-1.836235 -1.186835,-0.649401 -2.843926,-0.649401 -1.791449,0 -3.09025,0.783759 -1.276407,0.783759 -1.992987,2.239312 -0.694186,1.433159 -0.694186,3.470933 h -6.337252 q 0,-3.627685 1.477946,-6.314859 1.500338,-2.7095668 4.209905,-4.1875123 2.709567,-1.5003387 6.426824,-1.5003387 3.426147,0 6.090927,1.2764075 2.664781,1.2764076 4.16512,3.6276846 1.522732,2.3288839 1.522732,5.4863129 0,2.328884 -0.873332,4.254692 -0.873331,1.925808 -2.530422,3.73965 -1.634697,1.791449 -3.963581,3.784437 l -7.076225,6.158106 v 0.04479 h 14.600311 v 5.5311 z"
       id="text168"
       aria-label="2" />
  </g>
</svg>
