<?xml version="1.0" encoding="UTF-8" standalone="no"?>
<!-- Created with Inkscape (http://www.inkscape.org/) -->

<svg
   width="64mm"
   height="89mm"
   viewBox="0 0 64 89"
   version="1.1"
   id="svg1"
   xmlns="http://www.w3.org/2000/svg"
   xmlns:svg="http://www.w3.org/2000/svg">
  <defs
     id="defs1" />
  <g
     id="layer1">
    <path
       id="rect161"
       style="display:inline;vector-effect:non-scaling-stroke;fill:#ffffff;stroke-width:0.264583;stroke-linecap:square;-inkscape-stroke:hairline"
       d="m 3.5,0 h 56.999996 c 1.939,0 3.5,1.561 3.5,3.5 v 82 c 0,1.939 -1.561,3.5 -3.5,3.5 H 3.5 C 1.561,89 0,87.439 0,85.5 V 3.5 C 0,1.561 1.561,0 3.5,0 Z" />
    <path
       d="m 20.154043,38.664146 v -5.060844 l 12.22664,-10.457584 q 1.477946,-1.298801 2.642388,-2.44085 1.164442,-1.142049 1.813842,-2.396063 0.671794,-1.254014 0.671794,-2.799139 0,-1.589912 -0.671794,-2.754353 -0.6494,-1.186836 -1.858628,-1.836236 -1.186835,-0.6494 -2.843926,-0.6494 -1.791449,0 -3.09025,0.783759 -1.276407,0.783759 -1.992987,2.239311 -0.694186,1.43316 -0.694186,3.470933 h -6.337252 q 0,-3.627685 1.477946,-6.314858 1.500338,-2.7095672 4.209905,-4.1875128 2.709567,-1.5003387 6.426824,-1.5003387 3.426147,0 6.090927,1.2764076 2.664781,1.2764075 4.16512,3.6276846 1.522732,2.3288843 1.522732,5.4863133 0,2.328884 -0.873332,4.254692 -0.873331,1.925808 -2.530422,3.73965 -1.634697,1.791449 -3.963581,3.784436 l -7.076225,6.158107 v 0.04479 h 14.600311 v 5.531099 z"
       id="text169"
       style="font-weight:bold;font-size:45.8611px;font-family:'Adwaita Sans';-inkscape-font-specification:'Adwaita Sans Bold';text-align:center;text-anchor:middle;fill:#ff0000;stroke:#ff0000;stroke-width:0.264583;stroke-linecap:square"
       aria-label="2" />
    <path
       style="font-size:3.175px;text-align:center;text-anchor:middle;display:inline;fill:#ff0000;stroke-width:48.0427;stroke-linecap:square"
       d="m 23.40221,49.250001 q 4.762045,0 7.483214,5.51274 0.985225,2.18162 1.032125,3.3311 h 0.07109 q 0.82102,-3.80027 2.979228,-6.31033 2.533519,-2.53351 5.700409,-2.53351 4.90281,0 7.85858,5.25469 0.75068,1.94705 0.75068,3.65949 0,5.86461 -4.87936,11.18971 L 31.988691,84.250001 H 31.847886 L 18.663494,68.087141 q -3.941028,-4.809 -3.941028,-9.92296 0,-4.9497 4.668219,-7.85855 1.9705,-1.0556 4.011403,-1.0556 z"
       id="path169" />
  </g>
</svg>
