<?xml version="1.0" encoding="UTF-8" standalone="no"?>
<!-- Created with Inkscape (http://www.inkscape.org/) -->

<svg
   width="64mm"
   height="89mm"
   viewBox="0 0 64 89"
   version="1.1"
   id="svg1"
   xmlns="http://www.w3.org/2000/svg"
   xmlns:svg="http://www.w3.org/2000/svg">
  <defs
     id="defs1" />
  <g
     id="layer1">
    <path
       id="rect163"
       style="display:inline;vector-effect:non-scaling-stroke;fill:#ffffff;stroke-width:0.264583;stroke-linecap:square;-inkscape-stroke:hairline"
       d="m 3.5,0 h 56.999996 c 1.939,0 3.5,1.561 3.5,3.5 v 82 c 0,1.939 -1.561,3.5 -3.5,3.5 H 3.5 C 1.561,89 0,87.439 0,85.5 V 3.5 C 0,1.561 1.561,0 3.5,0 Z" />
    <path
       style="font-weight:bold;font-size:45.8611px;font-family:'Adwaita Sans';-inkscape-font-specification:'Adwaita Sans Bold';text-align:center;text-anchor:middle;stroke:#000000;stroke-width:0.264583;stroke-linecap:square"
       d="M 20.154043,38.664154 V 33.60331 l 12.22664,-10.457585 q 1.477946,-1.2988 2.642388,-2.440849 1.164442,-1.142049 1.813842,-2.396063 0.671794,-1.254015 0.671794,-2.79914 0,-1.589911 -0.671794,-2.754353 -0.6494,-1.186835 -1.858628,-1.836235 -1.186835,-0.649401 -2.843926,-0.649401 -1.791449,0 -3.09025,0.783759 -1.276407,0.783759 -1.992987,2.239312 -0.694186,1.433159 -0.694186,3.470933 h -6.337252 q 0,-3.627685 1.477946,-6.314859 1.500338,-2.7095666 4.209905,-4.1875122 2.709567,-1.5003387 6.426824,-1.5003387 3.426147,0 6.090927,1.2764076 2.664781,1.2764075 4.16512,3.6276846 1.522732,2.3288837 1.522732,5.4863127 0,2.328884 -0.873332,4.254692 -0.873331,1.925808 -2.530422,3.73965 -1.634697,1.79145 -3.963581,3.784437 l -7.076225,6.158106 v 0.04479 h 14.600311 v 5.531099 z"
       id="text171"
       aria-label="2" />
    <path
       style="font-size:3.175px;text-align:center;text-anchor:middle;display:inline;stroke-width:48.0428;stroke-linecap:square"
       d="m 32.059033,49.25 q 2.205097,3.91755 7.272121,10.39214 5.55964,6.52142 5.70043,7.85856 0.91483,1.99395 0.91483,3.87065 v 0.93832 q 0,3.91755 -3.80025,6.16956 -1.24323,0.51614 -2.74466,0.51614 -3.612612,0 -5.841155,-5.18431 h -0.98523 v 0.2814 q 0,6.63874 1.947052,10.15754 h -5.043575 v -0.1407 q 1.993952,-3.54225 1.993952,-10.22789 l -0.07116,-0.0693 h -0.891406 l -1.102476,2.06434 q -1.993977,3.11997 -4.973201,3.11997 -4.386743,0 -6.169575,-4.9028 l -0.21115,-1.71248 v -1.07905 q 0,-4.2929 4.38674,-9.05497 7.389417,-9.05496 9.477218,-12.92558 l 0.07116,-0.071 z"
       id="path171" />
  </g>
</svg>
