<?xml version="1.0" encoding="UTF-8" standalone="no"?>
<!-- Created with Inkscape (http://www.inkscape.org/) -->

<svg
   width="64mm"
   height="89mm"
   viewBox="0 0 64 89"
   version="1.1"
   id="svg1"
   xmlns="http://www.w3.org/2000/svg"
   xmlns:svg="http://www.w3.org/2000/svg">
  <defs
     id="defs1" />
  <g
     id="layer1">
    <path
       id="rect183"
       style="display:inline;vector-effect:non-scaling-stroke;fill:#ffffff;stroke-width:0.264583;stroke-linecap:square;-inkscape-stroke:hairline"
       d="m 3.5,0 h 56.999996 c 1.939,0 3.5,1.561 3.5,3.5 v 82 c 0,1.939 -1.561,3.5 -3.5,3.5 H 3.5 C 1.561,89 0,87.439 0,85.5 V 3.5 C 0,1.561 1.561,0 3.5,0 Z" />
    <path
       style="font-size:3.175px;text-align:center;text-anchor:middle;fill:#008000;stroke-width:48.0408;stroke-linecap:square"
       d="m 32.035038,49.25131 q 5.01991,0 7.38912,5.324865 0.30488,1.219863 0.3754,2.533404 0,2.74453 -2.8149,6.497741 l -1.40749,1.407488 h 0.0711 q 1.73586,-0.656835 3.70629,-0.656835 h 0.44576 q 5.58288,0 7.83481,4.73843 0.53958,1.548184 0.53958,2.955621 0,4.808806 -4.90262,7.248394 -0.93828,0.2814 -2.60378,0.422301 -5.67672,0 -8.04594,-6.427367 h -0.0711 v 0.21112 q 0,8.045922 1.92352,10.602796 v 0.140735 h -4.87917 l -0.14073,-0.140735 q 1.99387,-3.002561 1.99387,-10.813921 v -0.07117 h -0.0711 q -2.34576,6.497737 -8.09286,6.497737 -4.48036,0 -6.87304,-4.714958 -0.58647,-1.595108 -0.58647,-2.955662 0,-5.465614 5.77055,-7.412581 1.5482,-0.2814 2.74454,-0.2814 h 0.21108 q 2.01735,0 3.84703,0.656843 h 0.0711 v -0.07119 q -1.97042,-1.665509 -2.6507,-3.284072 -1.40749,-2.580338 -1.40749,-4.480398 v -0.328335 q 0,-4.714963 5.04337,-7.154547 1.66547,-0.445611 2.58032,-0.445611 z"
       id="path193" />
    <path
       style="font-weight:bold;font-size:45.8611px;font-family:'Adwaita Sans';-inkscape-font-specification:'Adwaita Sans Bold';text-align:center;text-anchor:middle;fill:#008000;stroke:#008000;stroke-width:0.273824;stroke-linecap:square"
       d="m 32.167953,39.201593 q -4.16512,0 -6.986652,-1.567518 -2.821533,-1.567518 -4.277085,-4.187513 -1.43316,-2.619994 -1.43316,-5.799817 h 6.583576 q 0,1.925808 0.71658,3.314181 0.738973,1.388373 2.08256,2.127346 1.36598,0.738973 3.247001,0.738973 1.791449,0 3.135036,-0.604614 1.343587,-0.627007 2.104953,-1.746663 0.761366,-1.119656 0.761366,-2.597601 0,-1.43316 -0.828545,-2.485636 -0.806152,-1.052476 -2.284098,-1.634697 -1.455552,-0.582221 -3.44854,-0.582221 h -2.978284 v -5.038451 h 2.978284 q 1.813843,0 3.135036,-0.537435 1.321194,-0.537435 2.037774,-1.500339 0.71658,-0.985297 0.71658,-2.328884 0,-1.433159 -0.671794,-2.508029 -0.671793,-1.074869 -1.881021,-1.65709 -1.186836,-0.582221 -2.776747,-0.582221 -1.634697,0 -2.866318,0.6494 -1.231622,0.649401 -1.925808,1.836236 -0.671794,1.186835 -0.671794,2.799139 H 20.14285 q 0,-3.045464 1.455552,-5.4191337 1.477946,-2.3960633 4.16512,-3.7620433 2.687174,-1.36598 6.337251,-1.36598 3.426147,0 6.068534,1.2092282 2.664781,1.1868351 4.16512,3.2917878 1.522732,2.08256 1.522732,4.81452 0,2.799139 -1.769056,4.724947 -1.769057,1.903415 -4.590589,2.485636 v 0.06718 q 2.328884,0.291111 3.985974,1.433159 1.657091,1.119656 2.530422,2.79914 0.873332,1.679483 0.873332,3.672471 0,2.866318 -1.634698,5.128023 -1.612304,2.239311 -4.478622,3.538112 -2.866319,1.276408 -6.605969,1.276407 z"
       id="text193"
       aria-label="3" />
  </g>
</svg>
