<?xml version="1.0" encoding="UTF-8" standalone="no"?>
<!-- Created with Inkscape (http://www.inkscape.org/) -->

<svg
   width="64mm"
   height="89mm"
   viewBox="0 0 64 89"
   version="1.1"
   id="svg1"
   xmlns="http://www.w3.org/2000/svg"
   xmlns:svg="http://www.w3.org/2000/svg">
  <defs
     id="defs1" />
  <g
     id="layer1">
    <path
       id="rect186"
       style="display:inline;vector-effect:non-scaling-stroke;fill:#ffffff;stroke-width:0.264583;stroke-linecap:square;-inkscape-stroke:hairline"
       d="m 3.5,0 h 56.999996 c 1.939,0 3.5,1.561 3.5,3.5 v 82 c 0,1.939 -1.561,3.5 -3.5,3.5 H 3.5 C 1.561,89 0,87.439 0,85.5 V 3.5 C 0,1.561 1.561,0 3.5,0 Z" />
    <path
       d="m 32.167953,39.201581 q -4.16512,0 -6.986652,-1.567518 -2.821533,-1.567518 -4.277085,-4.187512 -1.43316,-2.619995 -1.43316,-5.799817 h 6.583576 q 0,1.925808 0.71658,3.314181 0.738973,1.388373 2.08256,2.127346 1.36598,0.738973 3.247001,0.738973 1.791449,0 3.135036,-0.604614 1.343587,-0.627008 2.104953,-1.746663 0.761366,-1.119656 0.761366,-2.597602 0,-1.433159 -0.828545,-2.485636 -0.806152,-1.052476 -2.284098,-1.634697 -1.455552,-0.582221 -3.44854,-0.582221 H 28.562661 V 19.13735 h 2.978284 q 1.813843,0 3.135036,-0.537434 1.321194,-0.537435 2.037774,-1.500339 0.71658,-0.985297 0.71658,-2.328884 0,-1.433159 -0.671794,-2.508029 -0.671793,-1.07487 -1.881021,-1.657091 -1.186836,-0.58222 -2.776747,-0.58222 -1.634697,0 -2.866318,0.6494 -1.231622,0.6494 -1.925808,1.836235 -0.671794,1.186835 -0.671794,2.79914 H 20.14285 q 0,-3.045464 1.455552,-5.4191342 1.477946,-2.3960633 4.16512,-3.7620433 2.687174,-1.36598 6.337251,-1.36598 3.426147,0 6.068534,1.2092282 2.664781,1.1868351 4.16512,3.2917879 1.522732,2.0825594 1.522732,4.8145194 0,2.79914 -1.769056,4.724948 -1.769057,1.903414 -4.590589,2.485635 v 0.06718 q 2.328884,0.29111 3.985974,1.433159 1.657091,1.119656 2.530422,2.799139 0.873332,1.679484 0.873332,3.672471 0,2.866319 -1.634698,5.128023 -1.612304,2.239312 -4.478622,3.538113 -2.866319,1.276407 -6.605969,1.276407 z"
       id="text194"
       style="font-weight:bold;font-size:45.8611px;font-family:'Adwaita Sans';-inkscape-font-specification:'Adwaita Sans Bold';text-align:center;text-anchor:middle;fill:#ff0000;stroke:#ff0000;stroke-width:0.264583;stroke-linecap:square"
       aria-label="3" />
    <path
       style="font-size:3.175px;text-align:center;text-anchor:middle;display:inline;fill:#ff0000;stroke-width:48.0427;stroke-linecap:square"
       d="m 23.402207,49.25 q 4.76205,0 7.48321,5.51274 0.98523,2.18162 1.03213,3.3311 h 0.0711 q 0.82102,-3.80027 2.97923,-6.31033 2.53351,-2.53351 5.70041,-2.53351 4.90281,0 7.85858,5.25469 0.75068,1.94705 0.75068,3.65949 0,5.86461 -4.87936,11.18971 L 31.988687,84.25 h -0.1408 l -13.1844,-16.16286 q -3.94102,-4.809 -3.94102,-9.92296 0,-4.9497 4.66822,-7.85855 1.9705,-1.0556 4.0114,-1.0556 z"
       id="path194" />
  </g>
</svg>
