<?xml version="1.0" encoding="UTF-8" standalone="no"?>
<!-- Created with Inkscape (http://www.inkscape.org/) -->

<svg
   width="64mm"
   height="89mm"
   viewBox="0 0 64 89"
   version="1.1"
   id="svg1"
   xmlns="http://www.w3.org/2000/svg"
   xmlns:svg="http://www.w3.org/2000/svg">
  <defs
     id="defs1" />
  <g
     id="layer1">
    <path
       id="rect188"
       style="display:inline;vector-effect:non-scaling-stroke;fill:#ffffff;stroke-width:0.264583;stroke-linecap:square;-inkscape-stroke:hairline"
       d="m 3.5,0 h 56.999996 c 1.939,0 3.5,1.561 3.5,3.5 v 82 c 0,1.939 -1.561,3.5 -3.5,3.5 H 3.5 C 1.561,89 0,87.439 0,85.5 V 3.5 C 0,1.561 1.561,0 3.5,0 Z" />
    <path
       style="font-weight:bold;font-size:45.8611px;font-family:'Adwaita Sans';-inkscape-font-specification:'Adwaita Sans Bold';text-align:center;text-anchor:middle;stroke:#000000;stroke-width:0.264583;stroke-linecap:square"
       d="m 32.167953,39.201589 q -4.16512,0 -6.986652,-1.567518 -2.821533,-1.567518 -4.277085,-4.187513 -1.43316,-2.619994 -1.43316,-5.799816 h 6.583576 q 0,1.925807 0.71658,3.314181 0.738973,1.388373 2.08256,2.127345 1.36598,0.738973 3.247001,0.738973 1.791449,0 3.135036,-0.604614 1.343587,-0.627007 2.104953,-1.746663 0.761366,-1.119656 0.761366,-2.597601 0,-1.433159 -0.828545,-2.485636 -0.806152,-1.052476 -2.284098,-1.634697 -1.455552,-0.582221 -3.44854,-0.582221 h -2.978284 v -5.038451 h 2.978284 q 1.813843,0 3.135036,-0.537435 1.321194,-0.537435 2.037774,-1.500339 0.71658,-0.985297 0.71658,-2.328884 0,-1.433159 -0.671794,-2.508028 -0.671793,-1.07487 -1.881021,-1.657091 -1.186836,-0.582221 -2.776747,-0.582221 -1.634697,0 -2.866318,0.6494 -1.231622,0.649401 -1.925808,1.836236 -0.671794,1.186835 -0.671794,2.799139 H 20.14285 q 0,-3.045463 1.455552,-5.4191335 1.477946,-2.3960633 4.16512,-3.7620433 2.687174,-1.3659801 6.337251,-1.3659801 3.426147,0 6.068534,1.2092283 2.664781,1.186835 4.16512,3.2917878 1.522732,2.0825598 1.522732,4.8145198 0,2.799139 -1.769056,4.724947 -1.769057,1.903415 -4.590589,2.485636 v 0.06718 q 2.328884,0.291111 3.985974,1.43316 1.657091,1.119655 2.530422,2.799139 0.873332,1.679484 0.873332,3.672471 0,2.866319 -1.634698,5.128023 -1.612304,2.239312 -4.478622,3.538112 -2.866319,1.276408 -6.605969,1.276407 z"
       id="text196"
       aria-label="3" />
    <path
       style="font-size:3.175px;text-align:center;text-anchor:middle;display:inline;stroke-width:48.0428;stroke-linecap:square"
       d="m 32.059038,49.25 q 2.20509,3.91755 7.27212,10.39214 5.55963,6.52142 5.70043,7.85856 0.91483,1.99395 0.91483,3.87065 v 0.93832 q 0,3.91755 -3.80026,6.16956 -1.24322,0.51614 -2.74465,0.51614 -3.61262,0 -5.84116,-5.18431 h -0.98523 v 0.2814 q 0,6.63874 1.94705,10.15754 h -5.04357 v -0.1407 q 1.99395,-3.54225 1.99395,-10.22789 l -0.0712,-0.0693 h -0.89141 l -1.10247,2.06434 q -1.99398,3.11997 -4.9732,3.11997 -4.38675,0 -6.16958,-4.9028 l -0.21115,-1.71248 v -1.07905 q 0,-4.2929 4.38674,-9.05497 7.38942,-9.05496 9.47722,-12.92558 l 0.0712,-0.071 z"
       id="path196" />
  </g>
</svg>
