<?xml version="1.0" encoding="UTF-8" standalone="no"?>
<!-- Created with Inkscape (http://www.inkscape.org/) -->

<svg
   width="64mm"
   height="89mm"
   viewBox="0 0 64 89"
   version="1.1"
   id="svg1"
   xmlns="http://www.w3.org/2000/svg"
   xmlns:svg="http://www.w3.org/2000/svg">
  <defs
     id="defs1" />
  <g
     id="layer1">
    <path
       id="rect237"
       style="display:inline;vector-effect:non-scaling-stroke;fill:#ffffff;stroke-width:0.264583;stroke-linecap:square;-inkscape-stroke:hairline"
       d="m 3.5,0 h 56.999996 c 1.939,0 3.5,1.561 3.5,3.5 v 82 c 0,1.939 -1.561,3.5 -3.5,3.5 H 3.5 C 1.561,89 0,87.439 0,85.5 V 3.5 C 0,1.561 1.561,0 3.5,0 Z" />
    <path
       d="m 32.078388,39.156803 q -3.560505,0 -6.292465,-1.343587 -2.73196,-1.343587 -4.344265,-3.762044 -1.612304,-2.418456 -1.813842,-5.643065 h 6.516396 q 0.08957,1.545125 0.873332,2.776747 0.783759,1.209228 2.104953,1.925808 1.321193,0.694186 3.000677,0.694186 1.72427,0 3.023071,-0.783759 1.321193,-0.806152 2.037773,-2.194525 0.738973,-1.410766 0.738973,-3.224609 0,-1.858628 -0.71658,-3.269394 -0.71658,-1.410767 -1.992987,-2.216919 -1.276408,-0.806152 -2.955891,-0.806152 -2.194526,0 -3.762044,0.940511 -1.545125,0.918118 -2.127345,2.575208 H 20.098071 L 21.128155,5.2984129 H 42.491186 V 10.874299 H 27.196689 l -0.604614,7.882376 h 0.04479 q 1.298801,-1.321194 3.000677,-1.970594 1.72427,-0.671794 3.80683,-0.671794 2.261704,0 4.254692,0.850939 1.992987,0.828545 3.493326,2.37367 1.522731,1.522732 2.37367,3.605291 0.873331,2.060167 0.873331,4.478623 0,3.426147 -1.545125,6.090928 -1.522732,2.642387 -4.321871,4.142726 -2.776746,1.500339 -6.494003,1.500339 z"
       id="text245"
       style="font-weight:bold;font-size:45.8611px;font-family:'Adwaita Sans';-inkscape-font-specification:'Adwaita Sans Bold';text-align:center;text-anchor:middle;fill:#0000ff;stroke:#0000ff;stroke-width:0.264583;stroke-linecap:square"
       aria-label="5" />
    <path
       style="font-size:3.175px;text-align:center;text-anchor:middle;display:inline;fill:#0000ff;stroke-width:48.0427;stroke-linecap:square"
       d="m 32.023445,49.25 11.79962,15.31835 q 1.61863,1.99398 1.61863,2.29894 L 32.023445,84.25 q -0.28144,-0.1876 -13.46513,-17.38271 0,-0.3283 2.60386,-3.5657 z"
       id="path245" />
  </g>
</svg>
