<?xml version="1.0" encoding="UTF-8" standalone="no"?>
<!-- Created with Inkscape (http://www.inkscape.org/) -->

<svg
   width="64mm"
   height="89mm"
   viewBox="0 0 64 89"
   version="1.1"
   id="svg1"
   xmlns="http://www.w3.org/2000/svg"
   xmlns:svg="http://www.w3.org/2000/svg">
  <defs
     id="defs1" />
  <g
     id="layer1">
    <path
       id="rect236"
       style="display:inline;vector-effect:non-scaling-stroke;fill:#ffffff;stroke-width:0.264583;stroke-linecap:square;-inkscape-stroke:hairline"
       d="m 3.5,0 h 56.999996 c 1.939,0 3.5,1.561 3.5,3.5 v 82 c 0,1.939 -1.561,3.5 -3.5,3.5 H 3.5 C 1.561,89 0,87.439 0,85.5 V 3.5 C 0,1.561 1.561,0 3.5,0 Z" />
    <path
       d="m 32.078388,39.156795 q -3.560505,0 -6.292465,-1.343587 -2.73196,-1.343587 -4.344265,-3.762043 -1.612304,-2.418457 -1.813842,-5.643065 h 6.516396 q 0.08957,1.545125 0.873332,2.776746 0.783759,1.209228 2.104953,1.925808 1.321193,0.694186 3.000677,0.694186 1.72427,0 3.023071,-0.783759 1.321193,-0.806152 2.037773,-2.194525 0.738973,-1.410766 0.738973,-3.224608 0,-1.858629 -0.71658,-3.269395 -0.71658,-1.410766 -1.992987,-2.216918 -1.276408,-0.806153 -2.955891,-0.806153 -2.194526,0 -3.762044,0.940511 -1.545125,0.918118 -2.127345,2.575208 H 20.098071 L 21.128155,5.2984053 H 42.491186 V 10.874291 H 27.196689 l -0.604614,7.882376 h 0.04479 q 1.298801,-1.321193 3.000677,-1.970594 1.72427,-0.671793 3.80683,-0.671793 2.261704,0 4.254692,0.850938 1.992987,0.828545 3.493326,2.37367 1.522731,1.522732 2.37367,3.605292 0.873331,2.060166 0.873331,4.478623 0,3.426146 -1.545125,6.090927 -1.522732,2.642388 -4.321871,4.142726 -2.776746,1.500339 -6.494003,1.500339 z"
       id="text244"
       style="font-weight:bold;font-size:45.8611px;font-family:'Adwaita Sans';-inkscape-font-specification:'Adwaita Sans Bold';text-align:center;text-anchor:middle;fill:#ff0000;stroke:#ff0000;stroke-width:0.264583;stroke-linecap:square"
       aria-label="5" />
    <path
       style="font-size:3.175px;text-align:center;text-anchor:middle;display:inline;fill:#ff0000;stroke-width:48.0427;stroke-linecap:square"
       d="m 23.402205,49.249998 q 4.76205,0 7.48322,5.51274 0.98522,2.18162 1.03212,3.3311 h 0.0711 q 0.82102,-3.80027 2.97923,-6.31033 2.53352,-2.53351 5.70041,-2.53351 4.90281,0 7.85858,5.25469 0.75068,1.94705 0.75068,3.65949 0,5.86461 -4.87936,11.18971 l -12.40949,14.89611 h -0.14081 l -13.18439,-16.16286 q -3.94103,-4.809 -3.94103,-9.92296 0,-4.9497 4.66822,-7.85855 1.9705,-1.0556 4.0114,-1.0556 z"
       id="path244" />
  </g>
</svg>
