<?xml version="1.0" encoding="UTF-8" standalone="no"?>
<!-- Created with Inkscape (http://www.inkscape.org/) -->

<svg
   width="64mm"
   height="89mm"
   viewBox="0 0 64 89"
   version="1.1"
   id="svg1"
   xmlns="http://www.w3.org/2000/svg"
   xmlns:svg="http://www.w3.org/2000/svg">
  <defs
     id="defs1" />
  <g
     id="layer1">
    <path
       id="rect258"
       style="display:inline;vector-effect:non-scaling-stroke;fill:#ffffff;stroke-width:0.264583;stroke-linecap:square;-inkscape-stroke:hairline"
       d="m 3.5,0 h 56.999996 c 1.939,0 3.5,1.561 3.5,3.5 v 82 c 0,1.939 -1.561,3.5 -3.5,3.5 H 3.5 C 1.561,89 0,87.439 0,85.5 V 3.5 C 0,1.561 1.561,0 3.5,0 Z" />
    <path
       style="font-size:3.175px;text-align:center;text-anchor:middle;fill:#008000;stroke-width:48.0408;stroke-linecap:square"
       d="m 32.03506,49.251311 q 5.0199,0 7.38911,5.324865 0.30489,1.219863 0.3754,2.533404 0,2.74453 -2.8149,6.497741 l -1.40748,1.407488 h 0.0711 q 1.73586,-0.656835 3.70628,-0.656835 h 0.44576 q 5.58288,0 7.83482,4.73843 0.53957,1.548184 0.53957,2.955621 0,4.808806 -4.90262,7.248394 -0.93828,0.2814 -2.60378,0.422301 -5.67671,0 -8.04593,-6.427367 h -0.0711 v 0.21112 q 0,8.045922 1.92352,10.602796 v 0.140735 H 29.59564 L 29.4549,84.109269 q 1.99388,-3.002561 1.99388,-10.813921 v -0.07117 h -0.0711 q -2.34577,6.497737 -8.09286,6.497737 -4.48037,0 -6.87305,-4.714958 -0.58646,-1.595108 -0.58646,-2.955662 0,-5.465614 5.77054,-7.412581 1.5482,-0.2814 2.74454,-0.2814 h 0.21109 q 2.01734,0 3.84703,0.656843 h 0.0711 v -0.07119 Q 26.49918,63.277458 25.8189,61.658895 24.41142,59.078557 24.41142,57.178497 v -0.328335 q 0,-4.714963 5.04337,-7.154547 1.66547,-0.445611 2.58032,-0.445611 z"
       id="path270" />
    <path
       style="font-weight:bold;font-size:45.8611px;font-family:'Adwaita Sans';-inkscape-font-specification:'Adwaita Sans Bold';text-align:center;text-anchor:middle;fill:#008000;stroke:#008000;stroke-width:0.273824;stroke-linecap:square"
       d="m 32.492676,39.201593 q -3.135036,0 -5.575886,-1.097263 -2.418456,-1.097263 -4.120333,-3.202215 -1.679484,-2.104953 -2.575208,-5.128024 -0.873332,-3.045463 -0.873332,-6.941865 0,-4.120333 0.850939,-7.434514 0.873331,-3.336575 2.575208,-5.7102448 1.701877,-2.3960633 4.209905,-3.6500777 2.508029,-1.2764075 5.777424,-1.2764075 3.336574,0 5.844603,1.2540144 2.530422,1.2540144 4.053154,3.4261466 1.522732,2.172132 1.813842,4.926485 h -6.449217 q -0.35829,-1.970594 -1.746663,-3.112643 -1.388373,-1.164442 -3.582898,-1.164442 -2.37367,0 -3.941189,1.298801 -1.545124,1.298801 -2.30649,3.650078 -0.761366,2.328884 -0.761366,5.46392 h 0.04479 q 0.828545,-1.276408 2.01538,-2.149739 1.209229,-0.873332 2.709567,-1.321194 1.500339,-0.447862 3.224609,-0.447862 3.224608,0 5.732637,1.455552 2.530422,1.433159 3.963582,3.963581 1.455552,2.508029 1.455552,5.732638 0,3.403753 -1.589911,6.001355 -1.567518,2.575208 -4.344264,4.03076 -2.776747,1.43316 -6.404431,1.43316 z m -0.04479,-5.419134 q 1.657091,0 2.978285,-0.783759 1.321194,-0.806152 2.082559,-2.172132 0.783759,-1.388373 0.783759,-3.09025 0,-1.701877 -0.761365,-3.045464 -0.738973,-1.36598 -2.060167,-2.149739 -1.298801,-0.783759 -2.955891,-0.783759 -1.254015,0 -2.328884,0.470256 -1.052477,0.447862 -1.858629,1.254014 -0.783759,0.806152 -1.231621,1.903415 -0.447862,1.097262 -0.447862,2.37367 0,1.701877 0.761366,3.067857 0.761366,1.36598 2.082559,2.172132 1.321194,0.783759 2.955891,0.783759 z"
       id="text270"
       aria-label="6" />
  </g>
</svg>
