<?xml version="1.0" encoding="UTF-8" standalone="no"?>
<!-- Created with Inkscape (http://www.inkscape.org/) -->

<svg
   width="64mm"
   height="89mm"
   viewBox="0 0 64 89"
   version="1.1"
   id="svg1"
   xmlns="http://www.w3.org/2000/svg"
   xmlns:svg="http://www.w3.org/2000/svg">
  <defs
     id="defs1" />
  <g
     id="layer1">
    <path
       id="rect263"
       style="display:inline;vector-effect:non-scaling-stroke;fill:#ffffff;stroke-width:0.264583;stroke-linecap:square;-inkscape-stroke:hairline"
       d="m 3.5,0 h 56.999996 c 1.939,0 3.5,1.561 3.5,3.5 v 82 c 0,1.939 -1.561,3.5 -3.5,3.5 H 3.5 C 1.561,89 0,87.439 0,85.5 V 3.5 C 0,1.561 1.561,0 3.5,0 Z" />
    <path
       d="m 32.492676,39.201581 q -3.135036,0 -5.575886,-1.097262 -2.418456,-1.097263 -4.120333,-3.202216 -1.679484,-2.104953 -2.575208,-5.128023 -0.873332,-3.045464 -0.873332,-6.941866 0,-4.120333 0.850939,-7.434514 0.873331,-3.336574 2.575208,-5.7102442 1.701877,-2.3960633 4.209905,-3.6500777 2.508029,-1.2764076 5.777424,-1.2764076 3.336574,0 5.844603,1.2540145 2.530422,1.2540144 4.053154,3.4261465 1.522732,2.1721325 1.813842,4.9264855 h -6.449217 q -0.35829,-1.970594 -1.746663,-3.112643 -1.388373,-1.164442 -3.582898,-1.164442 -2.37367,0 -3.941189,1.298801 -1.545124,1.2988 -2.30649,3.650077 -0.761366,2.328884 -0.761366,5.46392 h 0.04479 q 0.828545,-1.276407 2.01538,-2.149739 1.209229,-0.873331 2.709567,-1.321194 1.500339,-0.447862 3.224609,-0.447862 3.224608,0 5.732637,1.455553 2.530422,1.433159 3.963582,3.963581 1.455552,2.508029 1.455552,5.732637 0,3.403754 -1.589911,6.001355 -1.567518,2.575208 -4.344264,4.030761 -2.776747,1.433159 -6.404431,1.433159 z m -0.04479,-5.419134 q 1.657091,0 2.978285,-0.783759 1.321194,-0.806152 2.082559,-2.172132 0.783759,-1.388373 0.783759,-3.09025 0,-1.701876 -0.761365,-3.045463 -0.738973,-1.36598 -2.060167,-2.149739 -1.298801,-0.783759 -2.955891,-0.783759 -1.254015,0 -2.328884,0.470255 -1.052477,0.447862 -1.858629,1.254015 -0.783759,0.806152 -1.231621,1.903414 -0.447862,1.097263 -0.447862,2.37367 0,1.701877 0.761366,3.067857 0.761366,1.36598 2.082559,2.172132 1.321194,0.783759 2.955891,0.783759 z"
       id="text271"
       style="font-weight:bold;font-size:45.8611px;font-family:'Adwaita Sans';-inkscape-font-specification:'Adwaita Sans Bold';text-align:center;text-anchor:middle;fill:#ff0000;stroke:#ff0000;stroke-width:0.264583;stroke-linecap:square"
       aria-label="6" />
    <path
       style="font-size:3.175px;text-align:center;text-anchor:middle;display:inline;fill:#ff0000;stroke-width:48.0427;stroke-linecap:square"
       d="m 23.402221,49.25 q 4.76205,0 7.48322,5.51274 0.98522,2.18162 1.03212,3.3311 h 0.0711 q 0.82102,-3.80027 2.97923,-6.31033 2.53352,-2.53351 5.70041,-2.53351 4.90281,0 7.85858,5.25469 0.75068,1.94705 0.75068,3.65949 0,5.86461 -4.87936,11.18971 L 31.988711,84.25 h -0.14081 L 18.663511,68.08714 q -3.94103,-4.809 -3.94103,-9.92296 0,-4.9497 4.66822,-7.85855 1.9705,-1.0556 4.0114,-1.0556 z"
       id="path271" />
  </g>
</svg>
