<?xml version="1.0" encoding="UTF-8" standalone="no"?>
<!-- Created with Inkscape (http://www.inkscape.org/) -->

<svg
   width="64mm"
   height="89mm"
   viewBox="0 0 64 89"
   version="1.1"
   id="svg1"
   xmlns="http://www.w3.org/2000/svg"
   xmlns:svg="http://www.w3.org/2000/svg">
  <defs
     id="defs1" />
  <g
     id="layer1">
    <path
       id="rect265"
       style="display:inline;vector-effect:non-scaling-stroke;fill:#ffffff;stroke-width:0.264583;stroke-linecap:square;-inkscape-stroke:hairline"
       d="m 3.5,0 h 56.999996 c 1.939,0 3.5,1.561 3.5,3.5 v 82 c 0,1.939 -1.561,3.5 -3.5,3.5 H 3.5 C 1.561,89 0,87.439 0,85.5 V 3.5 C 0,1.561 1.561,0 3.5,0 Z" />
    <path
       style="font-weight:bold;font-size:45.8611px;font-family:'Adwaita Sans';-inkscape-font-specification:'Adwaita Sans Bold';text-align:center;text-anchor:middle;stroke:#000000;stroke-width:0.264583;stroke-linecap:square"
       d="m 32.492676,39.201589 q -3.135036,0 -5.575886,-1.097263 -2.418456,-1.097262 -4.120333,-3.202215 -1.679484,-2.104953 -2.575208,-5.128024 -0.873332,-3.045463 -0.873332,-6.941865 0,-4.120333 0.850939,-7.434514 0.873331,-3.336574 2.575208,-5.7102446 1.701877,-2.3960633 4.209905,-3.6500777 2.508029,-1.2764076 5.777424,-1.2764076 3.336574,0 5.844603,1.2540145 2.530422,1.2540144 4.053154,3.4261466 1.522732,2.1721318 1.813842,4.9264848 h -6.449217 q -0.35829,-1.970594 -1.746663,-3.112643 -1.388373,-1.164442 -3.582898,-1.164442 -2.37367,0 -3.941189,1.298801 -1.545124,1.298801 -2.30649,3.650078 -0.761366,2.328884 -0.761366,5.46392 h 0.04479 q 0.828545,-1.276408 2.01538,-2.149739 1.209229,-0.873332 2.709567,-1.321194 1.500339,-0.447862 3.224609,-0.447862 3.224608,0 5.732637,1.455552 2.530422,1.43316 3.963582,3.963582 1.455552,2.508028 1.455552,5.732637 0,3.403753 -1.589911,6.001355 -1.567518,2.575208 -4.344264,4.03076 -2.776747,1.43316 -6.404431,1.43316 z m -0.04479,-5.419134 q 1.657091,0 2.978285,-0.783759 1.321194,-0.806152 2.082559,-2.172132 0.783759,-1.388373 0.783759,-3.09025 0,-1.701877 -0.761365,-3.045464 -0.738973,-1.36598 -2.060167,-2.149739 -1.298801,-0.783759 -2.955891,-0.783759 -1.254015,0 -2.328884,0.470256 -1.052477,0.447862 -1.858629,1.254014 -0.783759,0.806152 -1.231621,1.903415 -0.447862,1.097263 -0.447862,2.37367 0,1.701877 0.761366,3.067857 0.761366,1.36598 2.082559,2.172132 1.321194,0.783759 2.955891,0.783759 z"
       id="text273"
       aria-label="6" />
    <path
       style="font-size:3.175px;text-align:center;text-anchor:middle;display:inline;stroke-width:48.0428;stroke-linecap:square"
       d="m 32.05905,49.25 q 2.2051,3.91755 7.27212,10.39214 5.55964,6.52142 5.70043,7.85856 0.91483,1.99395 0.91483,3.87065 v 0.93832 q 0,3.91755 -3.80025,6.16956 -1.24323,0.51614 -2.74466,0.51614 -3.61261,0 -5.84115,-5.18431 h -0.98523 v 0.2814 q 0,6.63874 1.94705,10.15754 h -5.04358 v -0.1407 q 1.99395,-3.54225 1.99395,-10.22789 l -0.0712,-0.0693 h -0.8914 l -1.10248,2.06434 q -1.99397,3.11997 -4.9732,3.11997 -4.38674,0 -6.16957,-4.9028 l -0.21115,-1.71248 v -1.07905 q 0,-4.2929 4.38674,-9.05497 7.38941,-9.05496 9.47721,-12.92558 l 0.0712,-0.071 z"
       id="path273" />
  </g>
</svg>
