<?xml version="1.0" encoding="UTF-8" standalone="no"?>
<!-- Created with Inkscape (http://www.inkscape.org/) -->

<svg
   width="64mm"
   height="89mm"
   viewBox="0 0 64 89"
   version="1.1"
   id="svg1"
   xmlns="http://www.w3.org/2000/svg"
   xmlns:svg="http://www.w3.org/2000/svg">
  <defs
     id="defs1" />
  <g
     id="layer1">
    <path
       id="rect309"
       style="display:inline;vector-effect:non-scaling-stroke;fill:#ffffff;stroke-width:0.264583;stroke-linecap:square;-inkscape-stroke:hairline"
       d="m 3.5,0 h 56.999996 c 1.939,0 3.5,1.561 3.5,3.5 v 82 c 0,1.939 -1.561,3.5 -3.5,3.5 H 3.5 C 1.561,89 0,87.439 0,85.5 V 3.5 C 0,1.561 1.561,0 3.5,0 Z" />
    <path
       style="font-size:3.175px;text-align:center;text-anchor:middle;fill:#008000;stroke-width:48.0408;stroke-linecap:square"
       d="m 32.03507,49.25131 q 5.0199,0 7.38911,5.324865 0.30489,1.219863 0.3754,2.533404 0,2.74453 -2.8149,6.497741 l -1.40748,1.407488 h 0.0711 q 1.73586,-0.656835 3.70628,-0.656835 h 0.44576 q 5.58288,0 7.83482,4.73843 0.53957,1.548184 0.53957,2.955621 0,4.808806 -4.90262,7.248394 -0.93828,0.2814 -2.60378,0.422301 -5.67671,0 -8.04593,-6.427367 h -0.0711 v 0.21112 q 0,8.045922 1.92352,10.602796 v 0.140735 h -4.87917 l -0.14074,-0.140735 q 1.99388,-3.002561 1.99388,-10.813921 v -0.07117 h -0.0711 q -2.34577,6.497737 -8.09286,6.497737 -4.48037,0 -6.87305,-4.714958 -0.58646,-1.595108 -0.58646,-2.955662 0,-5.465614 5.77054,-7.412581 1.5482,-0.2814 2.74454,-0.2814 h 0.21109 q 2.01734,0 3.84703,0.656843 h 0.0711 v -0.07119 q -1.97043,-1.665509 -2.65071,-3.284072 -1.40748,-2.580338 -1.40748,-4.480398 v -0.328335 q 0,-4.714963 5.04337,-7.154547 1.66547,-0.445611 2.58032,-0.445611 z"
       id="path318" />
    <path
       style="font-weight:bold;font-size:45.8611px;font-family:'Adwaita Sans';-inkscape-font-specification:'Adwaita Sans Bold';text-align:center;text-anchor:middle;fill:#008000;stroke:#008000;stroke-width:0.273824;stroke-linecap:square"
       d="m 32.067206,39.201593 q -3.762043,0 -6.628362,-1.186835 -2.843925,-1.209229 -4.433836,-3.358968 -1.589911,-2.149739 -1.589911,-4.948878 0,-2.284098 1.00769,-4.053154 1.00769,-1.769056 2.821532,-2.911105 1.836236,-1.142049 4.232299,-1.433159 v 0.02239 q -3.157429,-0.492649 -5.060844,-2.463243 -1.881022,-1.992987 -1.881022,-5.060844 0,-2.642387 1.455553,-4.6801606 1.477945,-2.0601666 4.075547,-3.2022155 2.619994,-1.1644419 6.001354,-1.1644419 3.44854,0 6.046142,1.1420488 2.597601,1.1420489 4.053153,3.1798223 1.455553,2.0377739 1.455553,4.7249469 0,3.045464 -1.881022,5.038451 -1.881022,1.970594 -5.038451,2.485636 v -0.02239 q 2.396064,0.29111 4.209906,1.433159 1.813842,1.142049 2.821532,2.933498 1.030084,1.769056 1.030084,4.030761 0,2.799139 -1.612305,4.948878 -1.589911,2.149739 -4.45623,3.358968 -2.843925,1.186835 -6.628362,1.186835 z m 0,-5.016058 q 1.72427,0 3.023071,-0.604614 1.298801,-0.627007 2.01538,-1.746663 0.738973,-1.142049 0.738973,-2.597601 0,-1.522732 -0.738973,-2.664781 -0.738972,-1.164442 -2.037773,-1.813842 -1.298801,-0.671794 -3.000678,-0.671794 -1.679483,0 -2.978284,0.671794 -1.2988,0.6494 -2.037773,1.813842 -0.738973,1.142049 -0.738973,2.664781 0,1.477945 0.71658,2.597601 0.738972,1.119656 2.037773,1.746663 1.298801,0.604614 3.000677,0.604614 z m 0,-15.204925 q 1.500339,0 2.619995,-0.559828 1.119656,-0.559828 1.72427,-1.589911 0.627007,-1.052477 0.627007,-2.418457 0,-1.36598 -0.627007,-2.37367 -0.604614,-1.030083 -1.72427,-1.589911 -1.097263,-0.5598277 -2.619995,-0.5598277 -1.477945,0 -2.597601,0.5598277 -1.119656,0.559828 -1.746663,1.589911 -0.604614,1.00769 -0.604614,2.37367 0,1.36598 0.604614,2.396064 0.627007,1.030083 1.746663,1.612304 1.119656,0.559828 2.597601,0.559828 z"
       id="text318"
       aria-label="8" />
  </g>
</svg>
