<?xml version="1.0" encoding="UTF-8" standalone="no"?>
<!-- Created with Inkscape (http://www.inkscape.org/) -->

<svg
   width="64mm"
   height="89mm"
   viewBox="0 0 64 89"
   version="1.1"
   id="svg1"
   xmlns="http://www.w3.org/2000/svg"
   xmlns:svg="http://www.w3.org/2000/svg">
  <defs
     id="defs1" />
  <g
     id="layer1">
    <path
       id="rect311"
       style="display:inline;vector-effect:non-scaling-stroke;fill:#ffffff;stroke-width:0.264583;stroke-linecap:square;-inkscape-stroke:hairline"
       d="m 3.5,0 h 56.999996 c 1.939,0 3.5,1.561 3.5,3.5 v 82 c 0,1.939 -1.561,3.5 -3.5,3.5 H 3.5 C 1.561,89 0,87.439 0,85.5 V 3.5 C 0,1.561 1.561,0 3.5,0 Z" />
    <path
       d="m 32.067206,39.201581 q -3.762043,0 -6.628362,-1.186835 -2.843925,-1.209228 -4.433836,-3.358967 -1.589911,-2.149739 -1.589911,-4.948879 0,-2.284097 1.00769,-4.053153 1.00769,-1.769056 2.821532,-2.911105 1.836236,-1.142049 4.232299,-1.43316 v 0.02239 q -3.157429,-0.492649 -5.060844,-2.463243 -1.881022,-1.992987 -1.881022,-5.060844 0,-2.642388 1.455553,-4.6801611 1.477945,-2.0601666 4.075547,-3.2022154 2.619994,-1.164442 6.001354,-1.164442 3.44854,0 6.046142,1.1420489 2.597601,1.1420488 4.053153,3.1798223 1.455553,2.0377733 1.455553,4.7249473 0,3.045464 -1.881022,5.038451 -1.881022,1.970594 -5.038451,2.485636 v -0.02239 q 2.396064,0.291111 4.209906,1.43316 1.813842,1.142049 2.821532,2.933498 1.030084,1.769056 1.030084,4.03076 0,2.79914 -1.612305,4.948879 -1.589911,2.149739 -4.45623,3.358967 -2.843925,1.186835 -6.628362,1.186835 z m 0,-5.016058 q 1.72427,0 3.023071,-0.604614 1.298801,-0.627007 2.01538,-1.746663 0.738973,-1.142048 0.738973,-2.597601 0,-1.522732 -0.738973,-2.664781 -0.738972,-1.164442 -2.037773,-1.813842 -1.298801,-0.671793 -3.000678,-0.671793 -1.679483,0 -2.978284,0.671793 -1.2988,0.6494 -2.037773,1.813842 -0.738973,1.142049 -0.738973,2.664781 0,1.477946 0.71658,2.597601 0.738972,1.119656 2.037773,1.746663 1.298801,0.604614 3.000677,0.604614 z m 0,-15.204925 q 1.500339,0 2.619995,-0.559827 1.119656,-0.559828 1.72427,-1.589912 0.627007,-1.052476 0.627007,-2.418456 0,-1.36598 -0.627007,-2.37367 -0.604614,-1.030083 -1.72427,-1.589911 -1.097263,-0.5598282 -2.619995,-0.5598282 -1.477945,0 -2.597601,0.5598282 -1.119656,0.559828 -1.746663,1.589911 -0.604614,1.00769 -0.604614,2.37367 0,1.36598 0.604614,2.396063 0.627007,1.030084 1.746663,1.612305 1.119656,0.559827 2.597601,0.559827 z"
       id="text319"
       style="font-weight:bold;font-size:45.8611px;font-family:'Adwaita Sans';-inkscape-font-specification:'Adwaita Sans Bold';text-align:center;text-anchor:middle;fill:#ff0000;stroke:#ff0000;stroke-width:0.264583;stroke-linecap:square"
       aria-label="8" />
    <path
       style="font-size:3.175px;text-align:center;text-anchor:middle;display:inline;fill:#ff0000;stroke-width:48.0427;stroke-linecap:square"
       d="m 23.40223,49.25 q 4.76205,0 7.48322,5.51274 0.98522,2.18162 1.03212,3.3311 h 0.0711 Q 32.80969,54.29357 34.9679,51.78351 37.50142,49.25 40.66831,49.25 q 4.90281,0 7.85858,5.25469 0.75068,1.94705 0.75068,3.65949 0,5.86461 -4.87936,11.18971 L 31.98872,84.25 H 31.84791 L 18.66352,68.08714 q -3.94103,-4.809 -3.94103,-9.92296 0,-4.9497 4.66822,-7.85855 1.9705,-1.0556 4.0114,-1.0556 z"
       id="path319" />
  </g>
</svg>
