<?xml version="1.0" encoding="UTF-8" standalone="no"?>
<!-- Created with Inkscape (http://www.inkscape.org/) -->

<svg
   width="64mm"
   height="89mm"
   viewBox="0 0 64 89"
   version="1.1"
   id="svg1"
   xmlns="http://www.w3.org/2000/svg"
   xmlns:svg="http://www.w3.org/2000/svg">
  <defs
     id="defs1" />
  <g
     id="layer1">
    <path
       id="rect313"
       style="display:inline;vector-effect:non-scaling-stroke;fill:#ffffff;stroke-width:0.264583;stroke-linecap:square;-inkscape-stroke:hairline"
       d="m 3.5,0 h 56.999996 c 1.939,0 3.5,1.561 3.5,3.5 v 82 c 0,1.939 -1.561,3.5 -3.5,3.5 H 3.5 C 1.561,89 0,87.439 0,85.5 V 3.5 C 0,1.561 1.561,0 3.5,0 Z" />
    <path
       style="font-weight:bold;font-size:45.8611px;font-family:'Adwaita Sans';-inkscape-font-specification:'Adwaita Sans Bold';text-align:center;text-anchor:middle;stroke:#000000;stroke-width:0.264583;stroke-linecap:square"
       d="m 32.067206,39.201589 q -3.762043,0 -6.628362,-1.186835 -2.843925,-1.209228 -4.433836,-3.358968 -1.589911,-2.149739 -1.589911,-4.948878 0,-2.284098 1.00769,-4.053154 1.00769,-1.769056 2.821532,-2.911105 1.836236,-1.142048 4.232299,-1.433159 v 0.02239 q -3.157429,-0.492648 -5.060844,-2.463242 -1.881022,-1.992988 -1.881022,-5.060844 0,-2.642388 1.455553,-4.6801615 1.477945,-2.0601665 4.075547,-3.2022154 2.619994,-1.164442 6.001354,-1.164442 3.44854,0 6.046142,1.1420489 2.597601,1.1420489 4.053153,3.1798223 1.455553,2.0377737 1.455553,4.7249477 0,3.045463 -1.881022,5.03845 -1.881022,1.970595 -5.038451,2.485636 v -0.02239 q 2.396064,0.291111 4.209906,1.433159 1.813842,1.142049 2.821532,2.933498 1.030084,1.769057 1.030084,4.030761 0,2.799139 -1.612305,4.948878 -1.589911,2.14974 -4.45623,3.358968 -2.843925,1.186835 -6.628362,1.186835 z m 0,-5.016058 q 1.72427,0 3.023071,-0.604614 1.298801,-0.627007 2.01538,-1.746663 0.738973,-1.142049 0.738973,-2.597601 0,-1.522732 -0.738973,-2.664781 -0.738972,-1.164442 -2.037773,-1.813842 -1.298801,-0.671794 -3.000678,-0.671794 -1.679483,0 -2.978284,0.671794 -1.2988,0.6494 -2.037773,1.813842 -0.738973,1.142049 -0.738973,2.664781 0,1.477945 0.71658,2.597601 0.738972,1.119656 2.037773,1.746663 1.298801,0.604614 3.000677,0.604614 z m 0,-15.204925 q 1.500339,0 2.619995,-0.559828 1.119656,-0.559828 1.72427,-1.589911 0.627007,-1.052476 0.627007,-2.418456 0,-1.36598 -0.627007,-2.373671 -0.604614,-1.030083 -1.72427,-1.589911 -1.097263,-0.5598275 -2.619995,-0.5598275 -1.477945,0 -2.597601,0.5598275 -1.119656,0.559828 -1.746663,1.589911 -0.604614,1.007691 -0.604614,2.373671 0,1.36598 0.604614,2.396063 0.627007,1.030083 1.746663,1.612304 1.119656,0.559828 2.597601,0.559828 z"
       id="text321"
       aria-label="8" />
    <path
       style="font-size:3.175px;text-align:center;text-anchor:middle;display:inline;stroke-width:48.0428;stroke-linecap:square"
       d="m 32.05906,49.249999 q 2.2051,3.91755 7.27212,10.39214 5.55964,6.52142 5.70043,7.85856 0.91483,1.99395 0.91483,3.87065 v 0.93832 q 0,3.91755 -3.80025,6.16956 -1.24323,0.51614 -2.74466,0.51614 -3.61261,0 -5.84115,-5.18431 h -0.98523 v 0.2814 q 0,6.63874 1.94705,10.15754 h -5.04358 v -0.1407 q 1.99395,-3.54225 1.99395,-10.22789 l -0.0712,-0.0693 h -0.8914 l -1.10248,2.06434 q -1.99397,3.11997 -4.9732,3.11997 -4.38674,0 -6.16957,-4.9028 l -0.21115,-1.71248 v -1.07905 q 0,-4.2929 4.38674,-9.05497 7.38941,-9.05496 9.47721,-12.92558 l 0.0712,-0.071 z"
       id="path321" />
  </g>
</svg>
