<?xml version="1.0" encoding="UTF-8" standalone="no"?>
<!-- Created with Inkscape (http://www.inkscape.org/) -->

<svg
   width="64mm"
   height="89mm"
   viewBox="0 0 64 89"
   version="1.1"
   id="svg1"
   xmlns="http://www.w3.org/2000/svg"
   xmlns:svg="http://www.w3.org/2000/svg">
  <defs
     id="defs1" />
  <g
     id="layer1">
    <path
       id="rect333"
       style="display:inline;vector-effect:non-scaling-stroke;fill:#ffffff;stroke-width:0.264583;stroke-linecap:square;-inkscape-stroke:hairline"
       d="m 3.5,0 h 56.999996 c 1.939,0 3.5,1.561 3.5,3.5 v 82 c 0,1.939 -1.561,3.5 -3.5,3.5 H 3.5 C 1.561,89 0,87.439 0,85.5 V 3.5 C 0,1.561 1.561,0 3.5,0 Z" />
    <path
       style="font-size:3.175px;text-align:center;text-anchor:middle;fill:#008000;stroke-width:48.0408;stroke-linecap:square"
       d="m 32.035086,49.251307 q 5.0199,0 7.38911,5.324865 0.30489,1.219863 0.3754,2.533404 0,2.74453 -2.8149,6.497741 l -1.40748,1.407488 h 0.0711 q 1.73586,-0.656835 3.70628,-0.656835 h 0.44576 q 5.58288,0 7.83482,4.73843 0.53957,1.548184 0.53957,2.955621 0,4.808806 -4.90262,7.248394 -0.93828,0.2814 -2.60378,0.422301 -5.67671,0 -8.04593,-6.427367 h -0.0711 v 0.21112 q 0,8.045922 1.92352,10.602796 V 84.25 h -4.87917 l -0.14074,-0.140735 q 1.99388,-3.002561 1.99388,-10.813921 v -0.07117 h -0.0711 q -2.34577,6.497737 -8.09286,6.497737 -4.48037,0 -6.87305,-4.714958 -0.58646,-1.595108 -0.58646,-2.955662 0,-5.465614 5.77054,-7.412581 1.5482,-0.2814 2.74454,-0.2814 h 0.21109 q 2.01734,0 3.84703,0.656843 h 0.0711 v -0.07119 q -1.97043,-1.665509 -2.65071,-3.284072 -1.40748,-2.580338 -1.40748,-4.480398 v -0.328335 q 0,-4.714963 5.04337,-7.154547 Q 31.120286,49.25 32.035136,49.25 Z"
       id="path342" />
    <path
       style="font-weight:bold;font-size:45.8611px;font-family:'Adwaita Sans';-inkscape-font-specification:'Adwaita Sans Bold';text-align:center;text-anchor:middle;fill:#008000;stroke:#008000;stroke-width:0.273824;stroke-linecap:square"
       d="m 31.373016,39.201589 q -3.314181,0 -5.866996,-1.254015 -2.530422,-1.254014 -4.053154,-3.426146 -1.522732,-2.194525 -1.813842,-4.926485 h 6.426824 q 0.380683,1.948201 1.769056,3.112642 1.410766,1.164442 3.605291,1.164442 2.373671,0 3.918796,-1.2988 1.567518,-1.298801 2.328884,-3.650078 0.761365,-2.351277 0.761365,-5.46392 h -0.04479 q -0.828545,1.276408 -2.01538,2.127346 -1.186835,0.850938 -2.664781,1.298801 -1.477945,0.425469 -3.224608,0.425469 -3.202216,0 -5.732638,-1.43316 -2.530422,-1.455552 -3.985974,-3.963581 -1.43316,-2.530422 -1.43316,-5.732637 0,-3.403754 1.567518,-5.978962 1.589912,-2.5752081 4.366658,-4.0083675 2.799139,-1.4331594 6.404431,-1.4331594 3.135036,0 5.553492,1.0972627 2.44085,1.0972626 4.120333,3.2022154 1.701877,2.1049528 2.575209,5.1504168 0.895724,3.02307 0.895724,6.919472 0,4.120333 -0.873331,7.456907 -0.873332,3.314181 -2.575209,5.710245 -1.701876,2.37367 -4.232298,3.650077 -2.508029,1.254015 -5.777424,1.254015 z m 0.291111,-17.085947 q 1.254014,0 2.30649,-0.447862 1.07487,-0.447862 1.858629,-1.254015 0.806152,-0.806152 1.254014,-1.881021 0.447863,-1.097263 0.447863,-2.37367 0,-1.701877 -0.761366,-3.045464 -0.761366,-1.36598 -2.08256,-2.149739 -1.321194,-0.783759 -2.955891,-0.783759 -1.657091,0 -2.978284,0.783759 -1.321194,0.783759 -2.104953,2.149739 -0.761366,1.343587 -0.761366,3.067857 0,1.701876 0.761366,3.045463 0.761366,1.343587 2.060166,2.127346 1.321194,0.761366 2.955892,0.761366 z"
       id="text342"
       aria-label="9" />
  </g>
</svg>
