<?xml version="1.0" encoding="UTF-8" standalone="no"?>
<!-- Created with Inkscape (http://www.inkscape.org/) -->

<svg
   width="64mm"
   height="89mm"
   viewBox="0 0 64 89"
   version="1.1"
   id="svg1"
   xmlns="http://www.w3.org/2000/svg"
   xmlns:svg="http://www.w3.org/2000/svg">
  <defs
     id="defs1" />
  <g
     id="layer1">
    <path
       id="rect336"
       style="display:inline;vector-effect:non-scaling-stroke;fill:#ffffff;stroke-width:0.264583;stroke-linecap:square;-inkscape-stroke:hairline"
       d="m 3.5,0 h 56.999996 c 1.939,0 3.5,1.561 3.5,3.5 v 82 c 0,1.939 -1.561,3.5 -3.5,3.5 H 3.5 C 1.561,89 0,87.439 0,85.5 V 3.5 C 0,1.561 1.561,0 3.5,0 Z" />
    <path
       d="m 31.37302,39.201589 q -3.314181,0 -5.866996,-1.254015 -2.530422,-1.254014 -4.053154,-3.426146 -1.522732,-2.194525 -1.813842,-4.926485 h 6.426824 q 0.380683,1.948201 1.769056,3.112642 1.410766,1.164442 3.605291,1.164442 2.37367,0 3.918795,-1.2988 1.567518,-1.298801 2.328884,-3.650078 0.761366,-2.351277 0.761366,-5.46392 h -0.04479 q -0.828545,1.276408 -2.01538,2.127346 -1.186835,0.850938 -2.664781,1.298801 -1.477946,0.425469 -3.224609,0.425469 -3.202215,0 -5.732637,-1.43316 -2.530422,-1.455552 -3.985974,-3.963581 -1.43316,-2.530422 -1.43316,-5.732637 0,-3.403754 1.567518,-5.978962 1.589911,-2.5752081 4.366658,-4.0083675 2.799139,-1.4331594 6.404431,-1.4331594 3.135036,0 5.553492,1.0972627 2.44085,1.0972626 4.120333,3.2022154 1.701877,2.1049528 2.575208,5.1504168 0.895725,3.02307 0.895725,6.919472 0,4.120333 -0.873332,7.456907 -0.873331,3.314181 -2.575208,5.710245 -1.701876,2.37367 -4.232298,3.650077 -2.508029,1.254015 -5.777424,1.254015 z m 0.29111,-17.085947 q 1.254015,0 2.306491,-0.447862 1.07487,-0.447862 1.858629,-1.254015 0.806152,-0.806152 1.254014,-1.881021 0.447863,-1.097263 0.447863,-2.37367 0,-1.701877 -0.761366,-3.045464 -0.761366,-1.36598 -2.08256,-2.149739 -1.321194,-0.783759 -2.955891,-0.783759 -1.657091,0 -2.978285,0.783759 -1.321193,0.783759 -2.104952,2.149739 -0.761366,1.343587 -0.761366,3.067857 0,1.701876 0.761366,3.045463 0.761366,1.343587 2.060166,2.127346 1.321194,0.761366 2.955891,0.761366 z"
       id="text344"
       style="font-weight:bold;font-size:45.8611px;font-family:'Adwaita Sans';-inkscape-font-specification:'Adwaita Sans Bold';text-align:center;text-anchor:middle;fill:#0000ff;stroke:#0000ff;stroke-width:0.264583;stroke-linecap:square"
       aria-label="9" />
    <path
       style="font-size:3.175px;text-align:center;text-anchor:middle;display:inline;fill:#0000ff;stroke-width:48.0427;stroke-linecap:square"
       d="m 32.02349,49.25 11.79962,15.31835 q 1.61863,1.99398 1.61863,2.29894 L 32.02349,84.25 q -0.28144,-0.1876 -13.46513,-17.38271 0,-0.3283 2.60386,-3.5657 z"
       id="path344" />
  </g>
</svg>
