<?xml version="1.0" encoding="UTF-8" standalone="no"?>
<!-- Created with Inkscape (http://www.inkscape.org/) -->

<svg
   width="64mm"
   height="89mm"
   viewBox="0 0 64 89"
   version="1.1"
   id="svg1"
   xmlns="http://www.w3.org/2000/svg"
   xmlns:svg="http://www.w3.org/2000/svg">
  <defs
     id="defs1" />
  <g
     id="layer1">
    <path
       id="rect335"
       style="display:inline;vector-effect:non-scaling-stroke;fill:#ffffff;stroke-width:0.264583;stroke-linecap:square;-inkscape-stroke:hairline"
       d="m 3.5,0 h 56.999996 c 1.939,0 3.5,1.561 3.5,3.5 v 82 c 0,1.939 -1.561,3.5 -3.5,3.5 H 3.5 C 1.561,89 0,87.439 0,85.5 V 3.5 C 0,1.561 1.561,0 3.5,0 Z" />
    <path
       d="m 31.37302,39.201581 q -3.314181,0 -5.866996,-1.254014 -2.530422,-1.254015 -4.053154,-3.426147 -1.522732,-2.194525 -1.813842,-4.926485 h 6.426824 q 0.380683,1.948201 1.769056,3.112643 1.410766,1.164442 3.605291,1.164442 2.37367,0 3.918795,-1.298801 1.567518,-1.2988 2.328884,-3.650078 0.761366,-2.351277 0.761366,-5.46392 h -0.04479 q -0.828545,1.276408 -2.01538,2.127346 -1.186835,0.850939 -2.664781,1.298801 -1.477946,0.425469 -3.224609,0.425469 -3.202215,0 -5.732637,-1.433159 -2.530422,-1.455553 -3.985974,-3.963581 -1.43316,-2.530422 -1.43316,-5.732638 0,-3.403753 1.567518,-5.978962 1.589911,-2.5752078 4.366658,-4.0083671 2.799139,-1.4331594 6.404431,-1.4331594 3.135036,0 5.553492,1.0972626 2.44085,1.0972627 4.120333,3.2022155 1.701877,2.1049524 2.575208,5.1504164 0.895725,3.02307 0.895725,6.919472 0,4.120334 -0.873332,7.456908 -0.873331,3.314181 -2.575208,5.710244 -1.701876,2.37367 -4.232298,3.650078 -2.508029,1.254014 -5.777424,1.254014 z m 0.29111,-17.085946 q 1.254015,0 2.306491,-0.447863 1.07487,-0.447862 1.858629,-1.254014 0.806152,-0.806152 1.254014,-1.881022 0.447863,-1.097262 0.447863,-2.37367 0,-1.701877 -0.761366,-3.045464 -0.761366,-1.36598 -2.08256,-2.149739 -1.321194,-0.783759 -2.955891,-0.783759 -1.657091,0 -2.978285,0.783759 -1.321193,0.783759 -2.104952,2.149739 -0.761366,1.343587 -0.761366,3.067857 0,1.701877 0.761366,3.045464 0.761366,1.343587 2.060166,2.127346 1.321194,0.761366 2.955891,0.761366 z"
       id="text343"
       style="font-weight:bold;font-size:45.8611px;font-family:'Adwaita Sans';-inkscape-font-specification:'Adwaita Sans Bold';text-align:center;text-anchor:middle;fill:#ff0000;stroke:#ff0000;stroke-width:0.264583;stroke-linecap:square"
       aria-label="9" />
    <path
       style="font-size:3.175px;text-align:center;text-anchor:middle;display:inline;fill:#ff0000;stroke-width:48.0427;stroke-linecap:square"
       d="m 23.40225,49.250001 q 4.76205,0 7.48322,5.51274 0.98522,2.18162 1.03212,3.3311 h 0.0711 q 0.82102,-3.80027 2.97923,-6.31033 2.53352,-2.53351 5.70041,-2.53351 4.90281,0 7.85858,5.25469 0.75068,1.94705 0.75068,3.65949 0,5.86461 -4.87936,11.18971 L 31.98874,84.250001 H 31.84793 L 18.66354,68.087141 q -3.94103,-4.809 -3.94103,-9.92296 0,-4.9497 4.66822,-7.85855 1.9705,-1.0556 4.0114,-1.0556 z"
       id="path343" />
  </g>
</svg>
