<?xml version="1.0" encoding="UTF-8" standalone="no"?>
<!-- Created with Inkscape (http://www.inkscape.org/) -->

<svg
   width="64mm"
   height="89mm"
   viewBox="0 0 64 89"
   version="1.1"
   id="svg1"
   xmlns="http://www.w3.org/2000/svg"
   xmlns:svg="http://www.w3.org/2000/svg">
  <defs
     id="defs1" />
  <g
     id="layer1">
    <path
       id="rect3"
       style="display:inline;vector-effect:non-scaling-stroke;fill:#ffffff;stroke-width:0.264583;stroke-linecap:square;-inkscape-stroke:hairline"
       d="m 3.5,0 h 56.999996 c 1.939,0 3.5,1.561 3.5,3.5 v 82 c 0,1.939 -1.561,3.5 -3.5,3.5 H 3.5 C 1.561,89 0,87.439 0,85.5 V 3.5 C 0,1.561 1.561,0 3.5,0 Z" />
    <path
       style="font-size:3.175px;text-align:center;text-anchor:middle;fill:#008000;stroke-width:48.0408;stroke-linecap:square"
       d="m 32.035043,49.25131 q 5.019902,0 7.389115,5.324865 0.304884,1.219863 0.3754,2.533404 0,2.74453 -2.8149,6.497741 l -1.407486,1.407488 h 0.07112 q 1.73586,-0.656835 3.706286,-0.656835 h 0.445759 q 5.58288,0 7.834816,4.73843 0.539572,1.548184 0.539572,2.955621 0,4.808806 -4.902621,7.248394 -0.938277,0.2814 -2.603774,0.422301 -5.676719,0 -8.045937,-6.427367 h -0.07112 v 0.21112 q 0,8.045922 1.923518,10.602796 v 0.140735 h -4.879169 l -0.140735,-0.140735 q 1.993875,-3.002561 1.993875,-10.813921 v -0.07117 h -0.07112 q -2.345764,6.497737 -8.09286,6.497737 -4.480367,0 -6.873044,-4.714958 -0.586465,-1.595108 -0.586465,-2.955662 0,-5.465614 5.770541,-7.412581 1.548205,-0.2814 2.744543,-0.2814 h 0.211085 q 2.017344,0 3.847031,0.656843 h 0.07112 v -0.07119 q -1.970425,-1.665509 -2.650706,-3.284072 -1.407484,-2.580338 -1.407484,-4.480398 v -0.328335 q 0,-4.714963 5.043368,-7.154547 1.665471,-0.445611 2.580321,-0.445611 z"
       id="path261" />
    <path
       style="font-weight:bold;font-size:45.8611px;font-family:'Adwaita Sans';-inkscape-font-specification:'Adwaita Sans Bold';text-align:center;text-anchor:middle;fill:#008000;stroke:#008000;stroke-width:0.273824;stroke-linecap:square"
       d="M 15.932937,38.664158 27.644536,5.2984167 h 8.867673 L 48.223808,38.664158 H 40.587756 L 35.347767,22.42915 Q 34.384863,19.226934 33.35478,15.845574 32.34709,12.44182 31.160255,8.1199492 h 1.903415 q -1.231622,4.3218708 -2.261705,7.7256248 -1.00769,3.38136 -2.01538,6.583576 l -5.419134,16.235008 z m 7.434514,-7.277762 v -5.508707 h 17.444236 v 5.508707 z"
       id="text124"
       aria-label="A" />
  </g>
</svg>
