<?xml version="1.0" encoding="UTF-8" standalone="no"?>
<!-- Created with Inkscape (http://www.inkscape.org/) -->

<svg
   width="64mm"
   height="89mm"
   viewBox="0 0 64 89"
   version="1.1"
   id="svg1"
   xmlns="http://www.w3.org/2000/svg"
   xmlns:svg="http://www.w3.org/2000/svg">
  <defs
     id="defs1" />
  <g
     id="layer1">
    <path
       id="rect266"
       style="display:inline;vector-effect:non-scaling-stroke;fill:#ffffff;stroke-width:0.264583;stroke-linecap:square;-inkscape-stroke:hairline"
       d="m 3.5,0 h 56.999996 c 1.939,0 3.5,1.561 3.5,3.5 v 82 c 0,1.939 -1.561,3.5 -3.5,3.5 H 3.5 C 1.561,89 0,87.439 0,85.5 V 3.5 C 0,1.561 1.561,0 3.5,0 Z" />
    <path
       d="M 15.932937,38.664146 27.644536,5.2984053 h 8.867673 L 48.223808,38.664146 H 40.587756 L 35.347767,22.429138 Q 34.384863,19.226923 33.35478,15.845562 32.34709,12.441809 31.160255,8.1199377 h 1.903415 q -1.231622,4.3218713 -2.261705,7.7256243 -1.00769,3.381361 -2.01538,6.583576 l -5.419134,16.235008 z m 7.434514,-7.277762 v -5.508706 h 17.444236 v 5.508706 z"
       id="text298"
       style="font-weight:bold;font-size:45.8611px;font-family:'Adwaita Sans';-inkscape-font-specification:'Adwaita Sans Bold';text-align:center;text-anchor:middle;fill:#ff0000;stroke:#ff0000;stroke-width:0.264583;stroke-linecap:square"
       aria-label="A" />
    <path
       style="font-size:3.175px;text-align:center;text-anchor:middle;display:inline;fill:#ff0000;stroke-width:48.0427;stroke-linecap:square"
       d="m 23.402206,49.25 q 4.762045,0 7.483214,5.51274 0.985225,2.18162 1.032125,3.3311 h 0.07109 q 0.82102,-3.80027 2.979228,-6.31033 2.533514,-2.53351 5.700409,-2.53351 4.902813,0 7.858581,5.25469 0.75068,1.94705 0.75068,3.65949 0,5.86461 -4.87936,11.18971 L 31.988687,84.25 H 31.847882 L 18.66349,68.08714 q -3.941028,-4.809 -3.941028,-9.92296 0,-4.9497 4.668219,-7.85855 1.9705,-1.0556 4.011403,-1.0556 z"
       id="path380" />
  </g>
</svg>
