<?xml version="1.0" encoding="UTF-8" standalone="no"?>
<!-- Created with Inkscape (http://www.inkscape.org/) -->

<svg
   width="64mm"
   height="89mm"
   viewBox="0 0 64 89"
   version="1.1"
   id="svg1"
   xmlns="http://www.w3.org/2000/svg"
   xmlns:svg="http://www.w3.org/2000/svg">
  <defs
     id="defs1" />
  <g
     id="layer1">
    <path
       id="rect385"
       style="display:inline;vector-effect:non-scaling-stroke;fill:#ffffff;stroke-width:0.264583;stroke-linecap:square;-inkscape-stroke:hairline"
       d="m 3.5,0 h 56.999996 c 1.939,0 3.5,1.561 3.5,3.5 v 82 c 0,1.939 -1.561,3.5 -3.5,3.5 H 3.5 C 1.561,89 0,87.439 0,85.5 V 3.5 C 0,1.561 1.561,0 3.5,0 Z" />
    <path
       d="m 31.429003,39.156803 q -5.060844,0 -7.994342,-2.73196 -2.911105,-2.754354 -2.911105,-7.859984 v -2.261704 h 6.494003 v 2.30649 q 0,2.306491 1.164442,3.538113 1.164442,1.209228 3.179822,1.209228 1.992988,0 3.15743,-1.209228 1.164442,-1.231622 1.164442,-3.538113 V 5.2984129 h 6.897079 V 28.699218 q 0,5.038451 -2.978284,7.748018 -2.978285,2.709567 -8.173487,2.709567 z"
       id="text393"
       style="font-weight:bold;font-size:45.8611px;font-family:'Adwaita Sans';-inkscape-font-specification:'Adwaita Sans Bold';text-align:center;text-anchor:middle;fill:#0000ff;stroke:#0000ff;stroke-width:0.264583;stroke-linecap:square"
       aria-label="J" />
    <path
       style="font-size:3.175px;text-align:center;text-anchor:middle;display:inline;fill:#0000ff;stroke-width:48.0427;stroke-linecap:square"
       d="m 32.023469,49.250001 11.79962,15.31835 q 1.61863,1.99398 1.61863,2.29894 l -13.41825,17.38271 q -0.28144,-0.1876 -13.46513,-17.38271 0,-0.3283 2.60386,-3.5657 z"
       id="path393" />
  </g>
</svg>
