<?xml version="1.0" encoding="UTF-8" standalone="no"?>
<!-- Created with Inkscape (http://www.inkscape.org/) -->

<svg
   width="64mm"
   height="89mm"
   viewBox="0 0 64 89"
   version="1.1"
   id="svg1"
   xmlns="http://www.w3.org/2000/svg"
   xmlns:svg="http://www.w3.org/2000/svg">
  <defs
     id="defs1" />
  <g
     id="layer1">
    <path
       id="rect133"
       style="display:inline;vector-effect:non-scaling-stroke;fill:#ffffff;stroke-width:0.264583;stroke-linecap:square;-inkscape-stroke:hairline"
       d="m 3.5,0 h 56.999996 c 1.939,0 3.5,1.561 3.5,3.5 v 82 c 0,1.939 -1.561,3.5 -3.5,3.5 H 3.5 C 1.561,89 0,87.439 0,85.5 V 3.5 C 0,1.561 1.561,0 3.5,0 Z" />
    <path
       style="font-size:3.175px;text-align:center;text-anchor:middle;fill:#008000;stroke-width:48.0408;stroke-linecap:square"
       d="m 32.035079,49.25131 q 5.0199,0 7.38911,5.324865 0.30489,1.219863 0.3754,2.533404 0,2.74453 -2.8149,6.497741 l -1.40748,1.407488 h 0.0711 q 1.73586,-0.656835 3.70628,-0.656835 h 0.44576 q 5.58288,0 7.83482,4.73843 0.53957,1.548184 0.53957,2.955621 0,4.808806 -4.90262,7.248394 -0.93828,0.2814 -2.60378,0.422301 -5.67671,0 -8.04593,-6.427367 h -0.0711 v 0.21112 q 0,8.045922 1.92352,10.602796 v 0.140735 h -4.87917 l -0.14074,-0.140735 q 1.99388,-3.002561 1.99388,-10.813921 v -0.07117 h -0.0711 q -2.34577,6.497737 -8.09286,6.497737 -4.48037,0 -6.87305,-4.714958 -0.58646,-1.595108 -0.58646,-2.955662 0,-5.465614 5.77054,-7.412581 1.5482,-0.2814 2.74454,-0.2814 h 0.21109 q 2.01734,0 3.84703,0.656843 h 0.0711 v -0.07119 q -1.97043,-1.665509 -2.65071,-3.284072 -1.40748,-2.580338 -1.40748,-4.480398 v -0.328335 q 0,-4.714963 5.04337,-7.154547 1.66547,-0.445611 2.58032,-0.445611 z"
       id="path143" />
    <path
       style="font-weight:bold;font-size:45.8611px;font-family:'Adwaita Sans';-inkscape-font-specification:'Adwaita Sans Bold';text-align:center;text-anchor:middle;fill:#008000;stroke:#008000;stroke-width:0.273824;stroke-linecap:square"
       d="m 23.82654,31.699899 v -8.531777 q 1.142049,-1.388373 2.284098,-2.754353 1.142049,-1.36598 2.284098,-2.73196 1.164442,-1.36598 2.30649,-2.754353 l 8.240667,-9.6290393 h 8.263059 L 33.119683,21.555818 h -0.537435 z m -4.971271,6.964259 V 5.2984167 h 6.897079 v 9.2259633 8.442204 3.269395 12.428179 z m 20.736024,0 -9.964936,-15.115353 4.142726,-5.239989 13.771766,20.355342 z"
       id="text143"
       aria-label="K" />
  </g>
</svg>
