<?xml version="1.0" encoding="UTF-8" standalone="no"?>
<!-- Created with Inkscape (http://www.inkscape.org/) -->

<svg
   width="64mm"
   height="89mm"
   viewBox="0 0 64 89"
   version="1.1"
   id="svg1"
   xmlns="http://www.w3.org/2000/svg"
   xmlns:svg="http://www.w3.org/2000/svg">
  <defs
     id="defs1" />
  <g
     id="layer1">
    <path
       id="rect406"
       style="display:inline;vector-effect:non-scaling-stroke;fill:#ffffff;stroke-width:0.264583;stroke-linecap:square;-inkscape-stroke:hairline"
       d="m 3.5,0 h 56.999996 c 1.939,0 3.5,1.561 3.5,3.5 v 82 c 0,1.939 -1.561,3.5 -3.5,3.5 H 3.5 C 1.561,89 0,87.439 0,85.5 V 3.5 C 0,1.561 1.561,0 3.5,0 Z" />
    <path
       style="font-size:3.175px;text-align:center;text-anchor:middle;fill:#008000;stroke-width:48.0408;stroke-linecap:square"
       d="m 32.035059,49.251311 q 5.0199,0 7.38911,5.32486 0.30489,1.21987 0.3754,2.53341 0,2.74453 -2.8149,6.49774 l -1.40748,1.40749 h 0.0711 q 1.73586,-0.65684 3.70628,-0.65684 h 0.44576 q 5.58288,0 7.83482,4.73843 0.53957,1.54819 0.53957,2.95562 0,4.80881 -4.90262,7.2484 -0.93828,0.2814 -2.60378,0.4223 -5.67671,0 -8.04593,-6.42737 h -0.0711 v 0.21112 q 0,8.04592 1.92352,10.6028 v 0.14073 h -4.87917 l -0.14074,-0.14073 q 1.99388,-3.00256 1.99388,-10.81392 v -0.0712 h -0.0711 q -2.34577,6.49773 -8.09286,6.49773 -4.48037,0 -6.87305,-4.71495 -0.58646,-1.59511 -0.58646,-2.95567 0,-5.46561 5.77054,-7.41258 1.5482,-0.2814 2.74454,-0.2814 h 0.21109 q 2.01734,0 3.84703,0.65685 h 0.0711 v -0.0712 q -1.97043,-1.66551 -2.65071,-3.28408 -1.40748,-2.58033 -1.40748,-4.48039 v -0.32834 q 0,-4.71496 5.04337,-7.15455 1.66547,-0.44561 2.58032,-0.44561 z"
       id="path415" />
    <path
       style="font-weight:bold;font-size:45.8611px;font-family:'Adwaita Sans';-inkscape-font-specification:'Adwaita Sans Bold';text-align:center;text-anchor:middle;fill:#008000;stroke:#008000;stroke-width:0.273824;stroke-linecap:square"
       d="m 29.413622,27.198883 h 5.82221 l 3.09025,3.963581 2.754353,3.224609 5.687851,7.053831 h -6.270072 l -3.73965,-4.74734 -2.149739,-2.642388 z m 2.664781,12.00271 q -4.478623,0 -8.039128,-2.08256 -3.560505,-2.104953 -5.620672,-5.956569 -2.060167,-3.874008 -2.060167,-9.158784 0,-5.329561 2.060167,-9.181177 2.060167,-3.8740086 5.620672,-5.9565682 3.560505,-2.1049528 8.039128,-2.1049528 4.501016,0 8.061521,2.1049528 3.560506,2.0825596 5.620672,5.9565682 2.060167,3.851616 2.060167,9.181177 0,5.307169 -2.060167,9.158784 -2.060166,3.851616 -5.620672,5.956569 -3.560505,2.08256 -8.061521,2.08256 z m 0,-6.090928 q 2.575208,0 4.568195,-1.2988 1.992988,-1.298801 3.112643,-3.784437 1.119656,-2.485635 1.119656,-6.023748 0,-3.560505 -1.119656,-6.046141 -1.119655,-2.508028 -3.112643,-3.806829 -1.992987,-1.298801 -4.568195,-1.298801 -2.552815,0 -4.545802,1.298801 -1.970594,1.298801 -3.112643,3.806829 -1.119656,2.485636 -1.119656,6.046141 0,3.538113 1.119656,6.023748 1.142049,2.485636 3.112643,3.784437 1.992987,1.2988 4.545802,1.2988 z"
       id="text415"
       aria-label="Q" />
  </g>
</svg>
