<?xml version="1.0" encoding="UTF-8" standalone="no"?>
<!-- Created with Inkscape (http://www.inkscape.org/) -->

<svg
   width="64mm"
   height="89mm"
   viewBox="0 0 64 89"
   version="1.1"
   id="svg1"
   xmlns="http://www.w3.org/2000/svg"
   xmlns:svg="http://www.w3.org/2000/svg">
  <defs
     id="defs1" />
  <g
     id="layer1">
    <path
       id="rect409"
       style="display:inline;vector-effect:non-scaling-stroke;fill:#ffffff;stroke-width:0.264583;stroke-linecap:square;-inkscape-stroke:hairline"
       d="m 3.5,0 h 56.999996 c 1.939,0 3.5,1.561 3.5,3.5 v 82 c 0,1.939 -1.561,3.5 -3.5,3.5 H 3.5 C 1.561,89 0,87.439 0,85.5 V 3.5 C 0,1.561 1.561,0 3.5,0 Z" />
    <path
       d="m 29.413622,27.198879 h 5.82221 l 3.09025,3.963582 2.754353,3.224608 5.687851,7.053831 h -6.270072 l -3.73965,-4.74734 -2.149739,-2.642388 z m 2.664781,12.00271 q -4.478623,0 -8.039128,-2.08256 -3.560505,-2.104953 -5.620672,-5.956568 -2.060167,-3.874009 -2.060167,-9.158784 0,-5.329562 2.060167,-9.181178 2.060167,-3.8740084 5.620672,-5.9565681 3.560505,-2.1049528 8.039128,-2.1049528 4.501016,0 8.061521,2.1049528 3.560506,2.0825597 5.620672,5.9565681 2.060167,3.851616 2.060167,9.181178 0,5.307168 -2.060167,9.158784 -2.060166,3.851615 -5.620672,5.956568 -3.560505,2.08256 -8.061521,2.08256 z m 0,-6.090927 q 2.575208,0 4.568195,-1.298801 1.992988,-1.298801 3.112643,-3.784437 1.119656,-2.485635 1.119656,-6.023747 0,-3.560506 -1.119656,-6.046141 -1.119655,-2.508029 -3.112643,-3.80683 -1.992987,-1.298801 -4.568195,-1.298801 -2.552815,0 -4.545802,1.298801 -1.970594,1.298801 -3.112643,3.80683 -1.119656,2.485635 -1.119656,6.046141 0,3.538112 1.119656,6.023747 1.142049,2.485636 3.112643,3.784437 1.992987,1.298801 4.545802,1.298801 z"
       id="text417"
       style="font-weight:bold;font-size:45.8611px;font-family:'Adwaita Sans';-inkscape-font-specification:'Adwaita Sans Bold';text-align:center;text-anchor:middle;fill:#0000ff;stroke:#0000ff;stroke-width:0.264583;stroke-linecap:square"
       aria-label="Q" />
    <path
       style="font-size:3.175px;text-align:center;text-anchor:middle;display:inline;fill:#0000ff;stroke-width:48.0427;stroke-linecap:square"
       d="m 32.023459,49.25 11.79962,15.31835 q 1.61863,1.99398 1.61863,2.29894 L 32.023459,84.25 q -0.28144,-0.1876 -13.46513,-17.38271 0,-0.3283 2.60386,-3.5657 z"
       id="path417" />
  </g>
</svg>
