<?xml version="1.0" encoding="UTF-8" standalone="no"?>
<!-- Created with Inkscape (http://www.inkscape.org/) -->

<svg
   width="64mm"
   height="89mm"
   viewBox="0 0 64 89"
   version="1.1"
   id="svg1"
   xmlns="http://www.w3.org/2000/svg"
   xmlns:svg="http://www.w3.org/2000/svg">
  <defs
     id="defs1" />
  <g
     id="layer1">
    <path
       id="rect410"
       style="display:inline;vector-effect:non-scaling-stroke;fill:#ffffff;stroke-width:0.264583;stroke-linecap:square;-inkscape-stroke:hairline"
       d="m 3.5,0 h 56.999996 c 1.939,0 3.5,1.561 3.5,3.5 v 82 c 0,1.939 -1.561,3.5 -3.5,3.5 H 3.5 C 1.561,89 0,87.439 0,85.5 V 3.5 C 0,1.561 1.561,0 3.5,0 Z" />
    <path
       style="font-weight:bold;font-size:45.8611px;font-family:'Adwaita Sans';-inkscape-font-specification:'Adwaita Sans Bold';text-align:center;text-anchor:middle;stroke:#000000;stroke-width:0.264583;stroke-linecap:square"
       d="m 29.413622,27.198879 h 5.82221 l 3.09025,3.963582 2.754353,3.224608 5.687851,7.053831 h -6.270072 l -3.73965,-4.74734 -2.149739,-2.642388 z m 2.664781,12.00271 q -4.478623,0 -8.039128,-2.08256 -3.560505,-2.104953 -5.620672,-5.956568 -2.060167,-3.874009 -2.060167,-9.158784 0,-5.329562 2.060167,-9.181178 2.060167,-3.8740084 5.620672,-5.9565681 3.560505,-2.1049528 8.039128,-2.1049528 4.501016,0 8.061521,2.1049528 3.560506,2.0825597 5.620672,5.9565681 2.060167,3.851616 2.060167,9.181178 0,5.307168 -2.060167,9.158784 -2.060166,3.851615 -5.620672,5.956568 -3.560505,2.08256 -8.061521,2.08256 z m 0,-6.090927 q 2.575208,0 4.568195,-1.298801 1.992988,-1.298801 3.112643,-3.784437 1.119656,-2.485635 1.119656,-6.023747 0,-3.560506 -1.119656,-6.046141 -1.119655,-2.508029 -3.112643,-3.80683 -1.992987,-1.298801 -4.568195,-1.298801 -2.552815,0 -4.545802,1.298801 -1.970594,1.298801 -3.112643,3.80683 -1.119656,2.485635 -1.119656,6.046141 0,3.538112 1.119656,6.023747 1.142049,2.485636 3.112643,3.784437 1.992987,1.298801 4.545802,1.298801 z"
       id="text418"
       aria-label="Q" />
    <path
       style="font-size:3.175px;text-align:center;text-anchor:middle;display:inline;stroke-width:48.0428;stroke-linecap:square"
       d="m 32.059049,49.25 q 2.2051,3.91755 7.27212,10.39214 5.55964,6.52142 5.70043,7.85856 0.91483,1.99395 0.91483,3.87065 v 0.93832 q 0,3.91755 -3.80025,6.16956 -1.24323,0.51614 -2.74466,0.51614 -3.61261,0 -5.84115,-5.18431 h -0.98523 v 0.2814 q 0,6.63874 1.94705,10.15754 h -5.04358 v -0.1407 q 1.99395,-3.54225 1.99395,-10.22789 l -0.0712,-0.0693 h -0.8914 l -1.10248,2.06434 q -1.99397,3.11997 -4.9732,3.11997 -4.38674,0 -6.16957,-4.9028 l -0.21115,-1.71248 v -1.07905 q 0,-4.2929 4.38674,-9.05497 7.38941,-9.05496 9.47721,-12.92558 l 0.0712,-0.071 z"
       id="path418" />
  </g>
</svg>
