<?xml version="1.0" encoding="UTF-8" standalone="no"?>
<!-- Created with Inkscape (http://www.inkscape.org/) -->

<svg
   width="16"
   height="16"
   viewBox="0 0 16 16"
   version="1.1"
   id="svg1"
   xmlns="http://www.w3.org/2000/svg"
   xmlns:svg="http://www.w3.org/2000/svg">
  <defs
     id="defs1" />
  <g
     id="layer1">
    <path
       style="font-size:3.175px;text-align:center;text-anchor:middle;display:inline;fill:#ff0000;stroke-width:7.96899;stroke-linecap:square"
       d="m 2.878914,8.4755073 q 0.7642959,0 1.2010368,0.9450403 0.1581257,0.373993 0.1656535,0.5710459 h 0.011405 Q 4.3887827,9.3401196 4.735169,8.9098231 5.1417925,8.4755073 5.6500703,8.4755073 q 0.7868879,0 1.2612811,0.9008043 0.1204824,0.333779 0.1204824,0.6273394 0,1.005362 -0.7831246,1.918237 l -1.9916903,2.553619 h -0.0226 L 2.1183586,11.70473 q -0.6325248,-0.8244 -0.6325248,-1.701079 0,-0.8485184 0.7492377,-1.3471788 0.3162597,-0.18096 0.6438193,-0.18096 z"
       id="path169" />
    <path
       style="font-size:3.175px;text-align:center;text-anchor:middle;display:inline;stroke-width:8.86979;stroke-linecap:square"
       d="m 4.280684,1.0781994 q 0.4384451,0.6715802 1.4459341,1.7815099 1.1054371,1.1179578 1.133431,1.3471819 0.1818979,0.34182 0.1818979,0.6635401 V 5.031286 q 0,0.6715805 -0.7556132,1.057639 -0.2471949,0.088481 -0.5457278,0.088481 -0.7183047,0 -1.1614115,-0.8887387 H 4.383299 v 0.04824 q 0,1.1380697 0.3871367,1.7412925 H 3.7676094 v -0.02412 Q 4.1640719,6.446837 4.1640719,5.3007273 l -0.014144,-0.01188 H 3.9726821 L 3.7534745,5.6427341 q -0.3964675,0.534852 -0.9888346,0.534852 -0.8722268,0 -1.2267119,-0.84048 L 1.495947,5.043538 v -0.18498 q 0,-0.7359258 0.872226,-1.5522808 1.469257,-1.552279 1.8843795,-2.2158138 l 0.014144,-0.012172 z"
       id="path171" />
    <path
       style="font-size:3.175px;text-align:center;text-anchor:middle;fill:#008000;stroke-width:8.23558;stroke-linecap:square"
       d="m 11.530973,1.0310092 q 0.860555,0 1.266705,0.912834 0.05227,0.20912 0.06435,0.434298 0,0.470491 -0.482554,1.113899 l -0.241283,0.241283 h 0.01219 q 0.297577,-0.1126 0.635363,-0.1126 h 0.07642 q 0.957065,0 1.343112,0.812302 0.0925,0.265403 0.0925,0.506678 0,0.824367 -0.840449,1.242582 -0.160848,0.04824 -0.446361,0.07239 -0.973152,0 -1.379304,-1.101834 h -0.01219 v 0.03619 q 0,1.379301 0.329745,1.817622 v 0.02413 h -0.836428 l -0.02413,-0.02413 q 0.341807,-0.514725 0.341807,-1.853815 v -0.0122 h -0.01219 q -0.402131,1.113897 -1.387347,1.113897 -0.7680628,0 -1.1782358,-0.808278 -0.100537,-0.273447 -0.100537,-0.506685 0,-0.936962 0.9892356,-1.270728 0.2654062,-0.04824 0.4704932,-0.04824 h 0.03619 q 0.34583,0 0.659491,0.112601 h 0.01219 v -0.0122 q -0.33779,-0.285514 -0.45441,-0.562982 -0.241283,-0.442343 -0.241283,-0.768068 v -0.05629 q 0,-0.808279 0.864578,-1.226494 0.285509,-0.07639 0.44234,-0.07639 z"
       id="path168" />
    <path
       style="font-size:3.175px;text-align:center;text-anchor:middle;display:inline;fill:#0000ff;stroke-width:9.03478;stroke-linecap:square"
       d="m 11.527466,8.465059 2.434241,2.625999 q 0.333922,0.34183 0.333922,0.39411 l -2.768163,2.97989 q -0.05807,-0.0322 -2.7778371,-2.97989 0,-0.0563 0.5371721,-0.61127 z"
       id="path170" />
  </g>
</svg>
